{
.appVersion = "3151";
.formatVersion = 3;
DisplayStrings = (
"ʼ",
"'"
);
date = "2023-01-09 21:34:34 +0000";
familyName = SayatNovaNew;
fontMaster = (
{
guides = (
{
locked = 1;
pos = (302,0);
},
{
locked = 1;
pos = (302,-13);
},
{
locked = 1;
pos = (272,500);
},
{
locked = 1;
pos = (272,513);
},
{
angle = 90;
locked = 1;
pos = (93,330);
},
{
angle = 90;
locked = 1;
pos = (160,320);
},
{
angle = 90;
locked = 1;
pos = (427,330);
},
{
angle = 90;
locked = 1;
pos = (494,320);
},
{
locked = 1;
pos = (550,314);
},
{
locked = 1;
pos = (297,-22);
},
{
locked = 1;
pos = (349,381);
},
{
locked = 1;
pos = (348,431);
},
{
angle = 90;
locked = 1;
pos = (692,380);
},
{
angle = 90;
pos = (255,-14);
},
{
locked = 1;
pos = (805,694);
},
{
locked = 1;
pos = (806,662);
},
{
locked = 1;
pos = (64,108);
},
{
locked = 1;
pos = (109,188);
},
{
locked = 1;
pos = (89,730);
},
{
pos = (288,-56);
},
{
locked = 1;
pos = (340,-140);
}
);
id = m01;
metricValues = (
{
over = 16;
pos = 800;
},
{
over = 16;
pos = 700;
},
{
over = 16;
pos = 500;
},
{
over = -16;
},
{
over = -16;
pos = -200;
},
{
over = -16;
}
);
name = Regular;
visible = 1;
}
);
glyphs = (
{
glyphname = A;
lastChange = "2023-11-20 14:08:24 +0000";
layers = (
{
anchors = (
{
name = ogonek;
pos = (728,20);
},
{
name = top2;
pos = (387,822);
}
);
guides = (
{
angle = 69.2699;
pos = (106,90);
},
{
pos = (494,800);
}
);
layerId = m01;
shapes = (
{
closed = 1;
nodes = (
(203,314,l),
(203,264,l),
(564,264,l),
(564,314,l)
);
},
{
closed = 1;
nodes = (
(597,127,o),
(606,80,o),
(583,49,cs),
(567,29,o),
(539,18,o),
(508,14,c),
(510,0,l),
(797,0,l),
(800,14,l),
(754,26,o),
(721,45,o),
(699,90,c),
(394,817,l),
(381,817,l),
(106,90,l),
(87,44,o),
(57,23,o),
(15,14,c),
(18,0,l),
(297,0,l),
(299,14,l),
(255,24,o),
(215,33,o),
(192,64,cs),
(167,98,o),
(178,138,o),
(191,170,c),
(380,675,l),
(367,675,l),
(578,170,l)
);
}
);
width = 815;
}
);
unicode = 65;
},
{
glyphname = B;
lastChange = "2023-10-12 18:54:06 +0000";
layers = (
{
guides = (
{
angle = 90;
locked = 1;
pos = (188,429);
},
{
locked = 1;
pos = (256,755);
},
{
pos = (133,750);
},
{
locked = 1;
pos = (244,50);
}
);
hints = (
{
name = _corner.origin;
origin = (1,14);
type = Corner;
},
{
name = _corner.origin;
options = 1;
origin = (1,13);
scale = (-1,1);
type = Corner;
}
);
layerId = m01;
shapes = (
{
closed = 1;
nodes = (
(521,405,o),
(590,322,o),
(590,227,cs),
(590,132,o),
(521,50,o),
(420,50,c),
(163,50,l),
(190,26,l),
(190,774,l),
(168,750,l),
(378,750,l),
(480,750,o),
(543,700,o),
(543,600,cs),
(543,513,o),
(494,455,o),
(378,455,c),
(168,455,l),
(168,405,l),
(378,405,l)
);
},
{
closed = 1;
nodes = (
(452,0,l),
(571,0,o),
(678,96,o),
(682,215,cs),
(685,322,o),
(603,414,o),
(506,433,c),
(579,463,o),
(635,529,o),
(635,611,cs),
(635,730,o),
(516,800,o),
(407,800,c),
(110,800,l),
(110,0,l)
);
}
);
width = 720;
}
);
metricLeft = H;
unicode = 66;
},
{
glyphname = C;
lastChange = "2023-11-01 13:59:08 +0000";
layers = (
{
anchors = (
{
name = bottom;
pos = (418,-6);
},
{
name = top2;
pos = (434,832);
}
);
guides = (
{
angle = 90;
pos = (683,776);
}
);
layerId = m01;
shapes = (
{
closed = 0;
nodes = (
(722,48,l)
);
},
{
closed = 1;
nodes = (
(549,762,o),
(636,688,o),
(681,589,c),
(698,593,l),
(673,780,l),
(633,781,o),
(588,787,o),
(549,798,cs),
(510,809,o),
(473,817,o),
(426,817,cs),
(189,817,o),
(55,583,o),
(55,368,cs),
(55,125,o),
(230,-22,o),
(439,-22,cs),
(514,-22,o),
(559,-4,o),
(600,8,cs),
(629,17,o),
(656,21,o),
(683,21,c),
(712,241,l),
(695,245,l),
(647,108,o),
(559,33,o),
(434,33,cs),
(230,33,o),
(139,230,o),
(139,412,cs),
(139,616,o),
(249,762,o),
(423,762,cs)
);
}
);
width = 753;
}
);
metricLeft = O;
unicode = 67;
},
{
glyphname = D;
lastChange = "2023-10-13 19:03:11 +0000";
layers = (
{
anchors = (
{
name = top2;
pos = (341,818);
}
);
guides = (
{
angle = 90;
locked = 1;
pos = (188,405);
}
);
hints = (
{
name = _corner.origin;
options = 1;
origin = (1,13);
scale = (-1,1);
type = Corner;
},
{
name = _corner.origin;
origin = (1,14);
type = Corner;
}
);
layerId = m01;
shapes = (
{
closed = 1;
nodes = (
(168,50,l),
(190,30,l),
(190,773,l),
(168,750,l),
(341,750,l),
(429,750,o),
(499,721,o),
(549,667,cs),
(610,603,o),
(643,509,o),
(640,380,cs),
(639,320,o),
(613,199,o),
(558,135,cs),
(510,79,o),
(447,50,o),
(366,50,c)
);
},
{
closed = 1;
nodes = (
(366,0,l),
(456,0,o),
(561,33,o),
(623,101,cs),
(691,175,o),
(738,280,o),
(740,380,cs),
(744,543,o),
(680,653,o),
(585,723,cs),
(517,772,o),
(432,800,o),
(341,800,c),
(110,800,l),
(110,0,l)
);
}
);
width = 795;
}
);
metricLeft = H;
metricRight = O;
unicode = 68;
},
{
glyphname = E;
lastChange = "2023-10-12 18:54:33 +0000";
layers = (
{
anchors = (
{
name = ogonek;
pos = (662,15);
},
{
name = top2;
pos = (381,818);
}
);
guides = (
{
angle = -87.8621;
pos = (637,800);
},
{
angle = 268.442;
pos = (631,154);
},
{
locked = 1;
pos = (465,750);
},
{
angle = 90;
locked = 1;
pos = (188,404);
},
{
locked = 1;
pos = (494,50);
}
);
hints = (
{
name = _corner.origin;
options = 1;
origin = (1,21);
scale = (1,-1);
type = Corner;
},
{
name = _corner.origin;
origin = (1,22);
scale = (-1,-1);
type = Corner;
},
{
name = _corner.origin;
options = 1;
origin = (0,0);
scale = (-1,0.9);
type = Corner;
},
{
name = _corner.origin;
origin = (0,3);
scale = (1,0.9);
type = Corner;
}
);
layerId = m01;
shapes = (
{
closed = 1;
nodes = (
(558,431,l),
(169,431,l),
(169,381,l),
(558,381,l)
);
},
{
closed = 1;
nodes = (
(671,184,l),
(657,187,l),
(644,144,o),
(633,105,o),
(593,77,cs),
(567,59,o),
(534,50,o),
(494,50,cs),
(168,50,l),
(190,29,l),
(190,772,l),
(170,750,l),
(469,750,ls),
(509,750,o),
(542,741,o),
(568,723,cs),
(608,695,o),
(619,656,o),
(632,613,c),
(646,616,l),
(637,800,l),
(110,800,l),
(110,0,l),
(662,0,l)
);
}
);
width = 709;
}
);
metricLeft = H;
unicode = 69;
},
{
glyphname = F;
lastChange = "2023-10-12 19:29:23 +0000";
layers = (
{
guides = (
{
angle = 90;
locked = 1;
pos = (191,348);
},
{
locked = 1;
pos = (478,750);
}
);
hints = (
{
name = _corner.origin;
options = 1;
origin = (0,0);
scale = (-1,0.9);
type = Corner;
},
{
name = _corner.origin;
origin = (0,3);
scale = (1,0.9);
type = Corner;
},
{
name = _corner.origin;
options = 1;
origin = (1,0);
scale = (-1,1);
type = Corner;
},
{
name = _corner.origin;
origin = (1,1);
type = Corner;
},
{
name = _corner.origin;
options = 1;
origin = (1,2);
scale = (1,-1);
type = Corner;
}
);
layerId = m01;
shapes = (
{
closed = 1;
nodes = (
(548,431,l),
(168,431,l),
(168,381,l),
(548,381,l)
);
},
{
closed = 1;
nodes = (
(110,800,l),
(110,0,l),
(190,0,l),
(190,772,l),
(168,750,l),
(468,750,ls),
(507,750,o),
(540,741,o),
(566,723,cs),
(606,695,o),
(617,656,o),
(630,613,c),
(644,616,l),
(635,800,l)
);
}
);
width = 679;
}
);
metricLeft = H;
unicode = 70;
},
{
glyphname = G;
lastChange = "2023-11-01 13:58:40 +0000";
layers = (
{
anchors = (
{
name = bottom2;
pos = (411,0);
},
{
name = top2;
pos = (402,831);
}
);
guides = (
{
angle = 90;
pos = (592,431);
},
{
pos = (623,609);
},
{
angle = 90;
pos = (683,431);
}
);
hints = (
{
name = _corner.origin;
options = 1;
origin = (1,41);
scale = (-1,1);
type = Corner;
}
);
layerId = m01;
shapes = (
{
closed = 0;
nodes = (
(732,65,l)
);
},
{
closed = 1;
nodes = (
(722,199,ls),
(722,162,o),
(728,135,o),
(739,108,c),
(669,21,o),
(553,-22,o),
(440,-22,cs),
(230,-22,o),
(55,125,o),
(55,368,cs),
(55,583,o),
(195,817,o),
(446,817,cs),
(493,817,o),
(530,809,o),
(569,798,cs),
(608,787,o),
(653,781,o),
(693,780,c),
(722,582,l),
(705,578,l),
(669,679,o),
(581,761,o),
(441,761,cs),
(255,761,o),
(139,616,o),
(139,412,cs),
(139,230,o),
(245,29,o),
(440,29,cs),
(518,29,o),
(592,61,o),
(642,119,c),
(642,210,l),
(642,264,o),
(631,294,o),
(610,316,cs),
(583,344,o),
(541,356,o),
(497,367,c),
(499,381,l),
(722,381,l)
);
}
);
width = 835;
}
);
metricLeft = O;
unicode = 71;
},
{
glyphname = H;
lastChange = "2023-10-08 21:18:37 +0000";
layers = (
{
anchors = (
{
name = top2;
pos = (419,828);
}
);
guides = (
{
angle = 90;
pos = (803,129);
},
{
angle = 90;
pos = (41,108);
}
);
hints = (
{
name = _corner.origin;
origin = (0,0);
type = Corner;
},
{
name = _corner.origin;
options = 1;
origin = (0,1);
scale = (-1,1);
type = Corner;
},
{
name = _corner.origin;
origin = (2,0);
type = Corner;
},
{
name = _corner.origin;
options = 1;
origin = (2,1);
scale = (-1,1);
type = Corner;
},
{
name = _corner.origin;
origin = (0,2);
type = Corner;
},
{
name = _corner.origin;
origin = (2,2);
type = Corner;
},
{
name = _corner.origin;
options = 1;
origin = (2,3);
scale = (-1,1);
type = Corner;
},
{
name = _corner.origin;
options = 1;
origin = (0,3);
scale = (-1,1);
type = Corner;
}
);
layerId = m01;
shapes = (
{
closed = 1;
nodes = (
(110,0,l),
(190,0,l),
(190,800,l),
(110,800,l)
);
},
{
closed = 1;
nodes = (
(158,381,l),
(704,381,l),
(704,431,l),
(158,431,l)
);
},
{
closed = 1;
nodes = (
(648,0,l),
(728,0,l),
(728,800,l),
(648,800,l)
);
}
);
width = 838;
}
);
unicode = 72;
},
{
glyphname = I;
lastChange = "2023-10-01 12:34:41 +0000";
layers = (
{
anchors = (
{
name = ogonek;
pos = (274,16);
},
{
name = top2;
pos = (150,818);
}
);
hints = (
{
name = _corner.origin;
origin = (0,2);
type = Corner;
},
{
name = _corner.origin;
options = 1;
origin = (0,3);
scale = (-1,1);
type = Corner;
},
{
name = _corner.origin;
options = 1;
origin = (0,1);
scale = (-1,1);
type = Corner;
},
{
name = _corner.origin;
origin = (0,0);
type = Corner;
}
);
layerId = m01;
shapes = (
{
closed = 1;
nodes = (
(190,800,l),
(110,800,l),
(110,0,l),
(190,0,l)
);
}
);
width = 300;
}
);
metricLeft = H;
metricRight = H;
unicode = 73;
},
{
glyphname = J;
lastChange = "2023-10-01 21:21:04 +0000";
layers = (
{
anchors = (
{
name = top2;
pos = (181,818);
}
);
hints = (
{
name = _corner.origin;
options = 1;
origin = (0,16);
scale = (-1,1);
type = Corner;
},
{
name = _corner.origin;
origin = (0,15);
type = Corner;
}
);
layerId = m01;
shapes = (
{
closed = 1;
nodes = (
(221,730,o),
(217,145,o),
(217,70,cs),
(217,9,o),
(195,-45,o),
(165,-82,cs),
(141,-114,o),
(79,-171,o),
(40,-190,c),
(38,-171,l),
(111,-91,o),
(136,-17,o),
(137,70,cs),
(138,145,o),
(140,730,o),
(140,800,c),
(221,800,l)
);
}
);
width = 331;
}
);
metricLeft = H;
metricRight = H;
unicode = 74;
},
{
glyphname = K;
lastChange = "2023-10-12 18:55:17 +0000";
layers = (
{
anchors = (
{
name = bottom2;
pos = (362,0);
},
{
name = top2;
pos = (361,818);
}
);
guides = (
{
angle = -85.4232;
pos = (713,800);
},
{
pos = (272,8);
},
{
pos = (237,792);
},
{
pos = (364,10);
},
{
angle = 90;
pos = (341,233);
}
);
hints = (
{
name = _corner.origin;
origin = (0,2);
type = Corner;
},
{
name = _corner.origin;
options = 1;
origin = (0,3);
scale = (-1,1);
type = Corner;
},
{
name = _corner.origin;
origin = (0,0);
type = Corner;
},
{
name = _corner.origin;
options = 1;
origin = (0,1);
scale = (-1,1);
type = Corner;
},
{
name = _corner.origin;
origin = (1,7);
scale = (0.8,1);
type = Corner;
},
{
name = _corner.origin;
options = 1;
origin = (2,4);
scale = (-1.4,1.4);
type = Corner;
}
);
layerId = m01;
shapes = (
{
closed = 1;
nodes = (
(190,800,l),
(110,800,l),
(110,0,l),
(190,0,l)
);
},
{
closed = 1;
nodes = (
(774,0,l),
(776,13,l),
(733,27,o),
(699,46,o),
(660,90,c),
(368,477,l),
(316,418,l),
(625,0,l)
);
},
{
closed = 1;
nodes = (
(638,754,o),
(672,773,o),
(715,787,c),
(713,800,l),
(613,799,l),
(174,318,l),
(174,243,l),
(599,710,l)
);
}
);
width = 791;
}
);
metricLeft = H;
unicode = 75;
},
{
glyphname = L;
lastChange = "2023-11-01 13:27:57 +0000";
layers = (
{
anchors = (
{
name = bottom2;
pos = (381,12);
},
{
name = top2;
pos = (150,818);
}
);
guides = (
{
locked = 1;
pos = (481,50);
},
{
angle = 90;
locked = 1;
pos = (190,50);
}
);
hints = (
{
name = _corner.origin;
origin = (0,1);
type = Corner;
},
{
name = _corner.origin;
options = 1;
origin = (0,2);
scale = (-1,1);
type = Corner;
},
{
name = _corner.origin;
origin = (0,3);
scale = (-1,-1);
type = Corner;
}
);
layerId = m01;
shapes = (
{
closed = 1;
nodes = (
(190,50,l),
(190,800,l),
(110,800,l),
(110,0,l),
(629,0,l),
(638,184,l),
(624,187,l),
(611,144,o),
(600,105,o),
(560,77,cs),
(534,59,o),
(501,50,o),
(462,50,cs)
);
}
);
width = 678;
}
);
metricLeft = H;
unicode = 76;
},
{
glyphname = Lslash;
lastChange = "2023-11-01 13:28:04 +0000";
layers = (
{
guides = (
{
angle = 208.6423;
pos = (461,513);
},
{
angle = 208.6423;
pos = (461,458);
},
{
angle = 90;
pos = (441,493);
},
{
angle = 90;
pos = (190,711);
},
{
locked = 1;
pos = (247,50);
}
);
hints = (
{
name = _corner.origin;
origin = (2,12);
scale = (-1,-1);
type = Corner;
},
{
name = _corner.origin;
origin = (2,10);
type = Corner;
},
{
name = _corner.origin;
options = 1;
origin = (2,11);
scale = (-1,1);
type = Corner;
}
);
layerId = m01;
shapes = (
{
closed = 1;
nodes = (
(38,222,l),
(149,288,l),
(149,346,l),
(38,280,l)
);
},
{
closed = 1;
nodes = (
(179,305,l),
(431,447,l),
(431,505,l),
(179,363,l)
);
},
{
closed = 1;
nodes = (
(638,184,l),
(624,187,l),
(611,144,o),
(600,105,o),
(560,77,cs),
(534,59,o),
(501,50,o),
(462,50,cs),
(168,50,l),
(190,28,l),
(190,800,l),
(110,800,l),
(110,0,l),
(629,0,l)
);
}
);
width = 681;
}
);
metricLeft = L;
unicode = 321;
},
{
glyphname = M;
lastChange = "2023-11-01 13:59:34 +0000";
layers = (
{
hints = (
{
name = _corner.origin;
origin = (0,8);
type = Corner;
},
{
name = _corner.origin;
options = 1;
origin = (0,19);
scale = (-1,1);
type = Corner;
},
{
name = _corner.origin;
options = 1;
origin = (0,7);
scale = (-1,1.05);
type = Corner;
},
{
name = _corner.origin;
origin = (0,6);
type = Corner;
},
{
name = _corner.origin;
options = 1;
origin = (0,21);
scale = (-1,1);
type = Corner;
},
{
name = _corner.origin;
origin = (0,20);
type = Corner;
}
);
layerId = m01;
shapes = (
{
closed = 1;
nodes = (
(182,700,l),
(168,700,l),
(498,-16,l),
(514,-16,l),
(820,694,l),
(805,694,l),
(828,0,l),
(906,0,l),
(885,800,l),
(789,801,l),
(789,784,o),
(786,755,o),
(777,729,c),
(506,106,l),
(530,106,l),
(244,729,l),
(234,755,o),
(231,784,o),
(231,801,c),
(135,800,l),
(110,0,l),
(162,0,l)
);
}
);
width = 1016;
}
);
metricLeft = H;
metricRight = H;
unicode = 77;
},
{
glyphname = N;
lastChange = "2023-11-01 14:00:11 +0000";
layers = (
{
anchors = (
{
name = bottom2;
pos = (441,12);
},
{
name = top2;
pos = (441,828);
}
);
guides = (
{
angle = 90;
pos = (46,42);
},
{
angle = 129.0273;
pos = (740,119);
}
);
hints = (
{
name = _corner.origin;
origin = (0,10);
type = Corner;
},
{
name = _corner.origin;
options = 1;
origin = (0,11);
scale = (-1,1);
type = Corner;
},
{
name = _corner.origin;
options = 1;
origin = (0,9);
scale = (-1.3,1);
type = Corner;
},
{
name = _corner.origin;
options = 1;
origin = (0,5);
scale = (-1,1);
type = Corner;
},
{
name = _corner.origin;
origin = (0,4);
type = Corner;
}
);
layerId = m01;
shapes = (
{
closed = 1;
nodes = (
(182,709,l),
(155,709,l),
(741,-16,l),
(769,-16,l),
(769,800,l),
(719,800,l),
(719,117,l),
(740,119,l),
(188,800,l),
(132,800,l),
(132,0,l),
(182,0,l)
);
}
);
width = 879;
}
);
metricLeft = H;
metricRight = H;
unicode = 78;
},
{
glyphname = O;
lastChange = "2023-11-01 13:57:29 +0000";
layers = (
{
anchors = (
{
name = top2;
pos = (436,832);
}
);
layerId = m01;
shapes = (
{
closed = 1;
nodes = (
(841,666,o),
(676,817,o),
(462,817,cs),
(199,817,o),
(55,583,o),
(55,368,cs),
(55,125,o),
(230,-22,o),
(443,-22,cs),
(708,-22,o),
(841,208,o),
(841,422,cs)
);
},
{
closed = 1;
nodes = (
(757,175,o),
(649,33,o),
(467,33,cs),
(255,33,o),
(139,230,o),
(139,417,cs),
(139,616,o),
(259,762,o),
(440,762,cs),
(651,762,o),
(757,560,o),
(757,374,cs)
);
}
);
width = 896;
}
);
unicode = 79;
},
{
glyphname = P;
lastChange = "2023-10-13 19:03:20 +0000";
layers = (
{
guides = (
{
angle = 90;
locked = 1;
pos = (191,296);
},
{
locked = 1;
pos = (364,750);
}
);
hints = (
{
name = _corner.origin;
options = 1;
origin = (0,18);
scale = (-1,1);
type = Corner;
},
{
name = _corner.origin;
origin = (0,19);
type = Corner;
},
{
name = _corner.origin;
options = 1;
origin = (0,20);
scale = (-1,1);
type = Corner;
}
);
layerId = m01;
shapes = (
{
closed = 1;
nodes = (
(190,772,l),
(168,750,l),
(364,750,l),
(472,750,o),
(547,676,o),
(547,571,cs),
(547,478,o),
(488,380,o),
(350,380,c),
(168,380,l),
(168,330,l),
(370,330,l),
(563,330,o),
(639,460,o),
(639,575,cs),
(639,719,o),
(523,800,o),
(377,800,c),
(110,800,l),
(110,0,l),
(190,0,l)
);
}
);
width = 694;
}
);
metricLeft = H;
metricRight = O;
unicode = 80;
},
{
glyphname = Q;
lastChange = "2023-10-13 19:03:24 +0000";
layers = (
{
guides = (
{
angle = 90;
locked = 1;
pos = (813,439);
},
{
angle = 90;
locked = 1;
pos = (62,354);
}
);
layerId = m01;
shapes = (
{
closed = 1;
nodes = (
(968,-172,o),
(849,-143,o),
(711,-73,cs),
(617,-25,o),
(521,9,o),
(371,39,c),
(349,-8,l),
(495,-42,o),
(553,-87,o),
(665,-146,cs),
(817,-226,o),
(975,-222,o),
(1120,-165,c),
(1111,-138,l)
);
},
{
closed = 1;
nodes = (
(825,666,o),
(655,813,o),
(448,813,cs),
(204,813,o),
(55,583,o),
(55,368,cs),
(55,125,o),
(242,-22,o),
(432,-22,cs),
(680,-22,o),
(825,208,o),
(825,422,cs)
);
},
{
closed = 1;
nodes = (
(738,175,o),
(627,33,o),
(453,33,cs),
(261,33,o),
(142,230,o),
(142,412,cs),
(142,616,o),
(266,758,o),
(437,758,cs),
(629,758,o),
(738,560,o),
(738,378,cs)
);
}
);
width = 920;
}
);
metricLeft = O;
unicode = 81;
},
{
glyphname = R;
lastChange = "2023-10-13 19:08:26 +0000";
layers = (
{
anchors = (
{
name = bottom2;
pos = (382,0);
},
{
name = top2;
pos = (341,818);
}
);
guides = (
{
angle = 90;
locked = 1;
pos = (639,571);
},
{
angle = 90;
pos = (341,621);
},
{
angle = 90;
locked = 1;
pos = (191,469);
},
{
locked = 1;
pos = (364,750);
},
{
angle = -77.7647;
pos = (639,662);
}
);
hints = (
{
name = _corner.origin;
options = 1;
origin = (0,19);
scale = (-1,1);
type = Corner;
},
{
name = _corner.origin;
origin = (0,20);
type = Corner;
},
{
name = _corner.origin;
options = 1;
origin = (0,21);
scale = (-1,1);
type = Corner;
},
{
name = _corner.origin;
origin = (0,3);
scale = (0.8,1);
type = Corner;
}
);
layerId = m01;
shapes = (
{
closed = 1;
nodes = (
(409,360,o),
(466,322,o),
(518,215,c),
(617,0,l),
(773,0,l),
(777,16,l),
(732,25,o),
(694,46,o),
(669,90,c),
(604,242,l),
(572,318,o),
(521,357,o),
(460,374,c),
(580,395,o),
(649,492,o),
(649,586,cs),
(649,729,o),
(523,800,o),
(377,800,c),
(110,800,l),
(110,0,l),
(190,0,l),
(190,774,l),
(168,750,l),
(364,750,l),
(472,750,o),
(557,686,o),
(557,582,cs),
(557,488,o),
(488,410,o),
(350,410,c),
(168,410,l),
(168,360,l),
(263,360,l)
);
}
);
width = 795;
}
);
metricLeft = H;
unicode = 82;
},
{
glyphname = S;
lastChange = "2023-11-25 12:19:40 +0000";
layers = (
{
anchors = (
{
name = bottom;
pos = (278,0);
},
{
name = bottom2;
pos = (335,0);
},
{
name = top2;
pos = (318,828);
},
{
name = top3;
pos = (311,815);
}
);
guides = (
{
locked = 1;
pos = (312,811);
},
{
pos = (312,811);
},
{
locked = 1;
pos = (333,-22);
},
{
locked = 1;
pos = (333,360);
},
{
locked = 1;
pos = (359,31);
},
{
locked = 1;
pos = (1094,31);
},
{
locked = 1;
pos = (273,762);
},
{
angle = 90;
pos = (311,811);
},
{
angle = -82.5697;
pos = (570,765);
},
{
angle = 264.9364;
pos = (76,762);
}
);
layerId = m01;
shapes = (
{
closed = 1;
nodes = (
(35,262,l),
(35,59,l),
(70,55,o),
(99,46,o),
(130,31,cs),
(184,5,o),
(264,-22,o),
(353,-22,cs),
(510,-22,o),
(642,64,o),
(642,213,cs),
(642,332,o),
(552,392,o),
(371,440,cs),
(230,477,o),
(132,521,o),
(132,621,cs),
(132,716,o),
(221,771,o),
(317,771,cs),
(431,771,o),
(549,694,o),
(590,577,c),
(605,580,l),
(581,773,l),
(555,775,o),
(527,785,o),
(505,792,cs),
(476,801,o),
(411,821,o),
(338,821,cs),
(188,821,o),
(60,734,o),
(60,588,cs),
(60,442,o),
(193,408,o),
(334,370,cs),
(521,320,o),
(569,266,o),
(569,196,cs),
(569,96,o),
(470,36,o),
(350,36,cs),
(219,36,o),
(87,103,o),
(52,264,c)
);
}
);
width = 677;
}
);
unicode = 83;
},
{
glyphname = T;
lastChange = "2023-10-12 18:57:13 +0000";
layers = (
{
anchors = (
{
name = bottom;
pos = (332,12);
},
{
name = bottom2;
pos = (374,12);
},
{
name = top2;
pos = (375,828);
}
);
guides = (
{
angle = 90;
pos = (742,588);
},
{
angle = 90;
pos = (712,593);
},
{
angle = 90;
pos = (38,544);
},
{
angle = 90;
pos = (8,549);
},
{
angle = 90;
locked = 1;
pos = (332,769);
},
{
angle = 90;
locked = 1;
pos = (418,769);
}
);
hints = (
{
name = _corner.origin;
origin = (1,3);
type = Corner;
},
{
name = _corner.origin;
options = 1;
origin = (1,0);
scale = (-1,1);
type = Corner;
}
);
layerId = m01;
shapes = (
{
closed = 1;
nodes = (
(575,750,o),
(608,741,o),
(634,723,cs),
(674,695,o),
(685,656,o),
(698,613,c),
(712,616,l),
(703,800,l),
(47,800,l),
(38,616,l),
(52,613,l),
(65,656,o),
(76,695,o),
(116,723,cs),
(142,741,o),
(175,750,o),
(215,750,cs),
(535,750,l)
);
},
{
closed = 1;
nodes = (
(415,0,l),
(415,768,l),
(335,768,l),
(335,0,l)
);
}
);
width = 750;
}
);
unicode = 84;
},
{
glyphname = U;
lastChange = "2023-10-12 19:35:59 +0000";
layers = (
{
anchors = (
{
name = ogonek;
pos = (605,1);
},
{
name = top2;
pos = (464,828);
}
);
guides = (
{
pos = (521,784);
}
);
hints = (
{
name = _corner.origin;
options = 1;
origin = (0,8);
scale = (-1,1.1);
type = Corner;
},
{
name = _corner.origin;
origin = (0,7);
scale = (-1.5,-1.4);
type = Corner;
}
);
layerId = m01;
shapes = (
{
closed = 1;
nodes = (
(217,361,l),
(217,182,o),
(289,34,o),
(478,34,cs),
(645,34,o),
(722,152,o),
(722,331,c),
(724,800,l),
(774,800,l),
(774,329,l),
(770,91,o),
(643,-23,o),
(455,-23,cs),
(219,-23,o),
(138,171,o),
(137,359,c),
(137,674,l),
(137,742,o),
(87,775,o),
(38,784,c),
(41,800,l),
(328,800,l),
(330,784,l),
(289,779,o),
(217,743,o),
(217,674,c)
);
}
);
width = 884;
}
);
metricLeft = H;
unicode = 85;
},
{
glyphname = V;
lastChange = "2023-11-20 14:08:57 +0000";
layers = (
{
guides = (
{
locked = 1;
pos = (349,800);
},
{
angle = 249.4239;
pos = (707,710);
}
);
layerId = m01;
shapes = (
{
closed = 1;
nodes = (
(448,125,l),
(435,125,l),
(624,630,l),
(637,662,o),
(648,702,o),
(623,736,cs),
(600,767,o),
(560,776,o),
(516,786,c),
(518,800,l),
(797,800,l),
(800,786,l),
(758,777,o),
(726,756,o),
(707,710,c),
(434,-16,l),
(421,-16,l),
(116,710,l),
(94,755,o),
(61,774,o),
(15,786,c),
(18,800,l),
(305,800,l),
(307,786,l),
(276,782,o),
(248,771,o),
(232,751,cs),
(209,720,o),
(218,673,o),
(237,630,c)
);
}
);
width = 815;
}
);
unicode = 86;
},
{
glyphname = W;
lastChange = "2023-11-01 13:54:32 +0000";
layers = (
{
anchors = (
{
name = top2;
pos = (530,828);
}
);
layerId = m01;
shapes = (
{
closed = 1;
nodes = (
(394,-16,l),
(408,-16,l),
(594,570,l),
(566,654,l),
(402,126,l),
(426,126,l),
(233,630,l),
(214,673,o),
(205,720,o),
(228,751,cs),
(244,771,o),
(272,782,o),
(303,786,c),
(301,800,l),
(18,800,l),
(15,786,l),
(61,774,o),
(94,755,o),
(116,710,c)
);
},
{
closed = 1;
nodes = (
(793,126,l),
(818,126,l),
(614,694,l),
(595,745,o),
(637,781,o),
(679,788,c),
(676,801,l),
(427,801,l),
(424,787,l),
(466,778,o),
(503,757,o),
(522,711,c),
(784,-16,l),
(798,-16,l),
(1031,710,l),
(1046,756,o),
(1082,777,o),
(1124,786,c),
(1121,800,l),
(846,800,l),
(844,786,l),
(888,776,o),
(928,768,o),
(951,736,cs),
(973,706,o),
(965,662,o),
(955,630,c)
);
}
);
width = 1139;
}
);
unicode = 87;
},
{
glyphname = X;
lastChange = "2023-10-12 19:32:21 +0000";
layers = (
{
guides = (
{
angle = -88.2217;
pos = (828,787);
},
{
angle = 268.2217;
pos = (52,786);
},
{
angle = 234.5045;
pos = (398,438);
},
{
angle = 234.5045;
pos = (441,428);
}
);
layerId = m01;
shapes = (
{
closed = 1;
nodes = (
(440,395,l),
(408,438,l),
(159,89,l),
(135,56,o),
(86,29,o),
(38,14,c),
(41,0,l),
(282,0,l),
(285,13,l),
(243,23,o),
(207,70,o),
(251,127,c)
);
},
{
closed = 1;
nodes = (
(287,678,l),
(245,732,o),
(287,777,o),
(329,787,c),
(326,800,l),
(55,800,l),
(52,786,l),
(97,771,o),
(134,744,o),
(160,711,c),
(609,129,l),
(655,70,o),
(617,23,o),
(575,13,c),
(578,0,l),
(849,0,l),
(852,14,l),
(804,29,o),
(767,56,o),
(741,89,c)
);
},
{
closed = 1;
nodes = (
(430,428,l),
(462,385,l),
(697,711,l),
(721,744,o),
(770,771,o),
(818,786,c),
(815,800,l),
(574,800,l),
(571,787,l),
(613,777,o),
(645,728,o),
(609,675,c)
);
}
);
width = 890;
}
);
metricLeft = H;
metricRight = H;
unicode = 88;
},
{
glyphname = Y;
lastChange = "2023-11-01 13:53:03 +0000";
layers = (
{
anchors = (
{
name = top2;
pos = (371,828);
}
);
guides = (
{
angle = 90;
locked = 1;
pos = (337,269);
},
{
angle = 90;
locked = 1;
pos = (416,269);
},
{
angle = 90;
pos = (725,786);
},
{
angle = 90;
pos = (10,786);
},
{
angle = 90;
pos = (363,765);
},
{
angle = 239.8516;
pos = (631,710);
},
{
angle = -62.5315;
pos = (227,688);
},
{
angle = -62.5315;
pos = (115,711);
},
{
angle = 239.8516;
pos = (541,649);
}
);
hints = (
{
name = _corner.origin;
origin = (0,13);
type = Corner;
},
{
name = _corner.origin;
options = 1;
origin = (0,14);
scale = (1,-1);
type = Corner;
}
);
layerId = m01;
shapes = (
{
closed = 1;
nodes = (
(567,694,o),
(569,730,o),
(555,752,cs),
(540,776,o),
(507,782,o),
(475,786,c),
(477,800,l),
(722,800,l),
(725,786,l),
(683,777,o),
(658,752,o),
(631,710,c),
(401,314,l),
(401,0,l),
(321,0,l),
(321,314,l),
(115,711,l),
(93,754,o),
(56,774,o),
(10,786,c),
(13,800,l),
(289,800,l),
(291,786,l),
(260,783,o),
(230,780,o),
(216,761,cs),
(202,742,o),
(212,718,o),
(226,690,c),
(397,360,l),
(373,360,l),
(539,645,l)
);
}
);
width = 735;
}
);
unicode = 89;
},
{
glyphname = Z;
lastChange = "2023-10-12 19:28:15 +0000";
layers = (
{
anchors = (
{
name = top2;
pos = (348,818);
}
);
layerId = m01;
shapes = (
{
closed = 1;
nodes = (
(163,50,l),
(705,778,l),
(705,800,l),
(73,800,l),
(63,606,l),
(78,603,l),
(87,651,o),
(102,695,o),
(142,723,cs),
(168,741,o),
(201,750,o),
(241,750,c),
(579,750,l),
(38,22,l),
(38,0,l),
(710,0,l),
(720,194,l),
(705,197,l),
(694,154,o),
(676,105,o),
(630,77,cs),
(582,47,o),
(517,50,o),
(477,50,c)
);
}
);
width = 758;
}
);
unicode = 90;
},
{
glyphname = a;
lastChange = "2023-11-25 13:04:42 +0000";
layers = (
{
anchors = (
{
name = bottom;
pos = (270,0);
},
{
name = ogonek;
pos = (543,26);
},
{
name = top;
pos = (270,500);
}
);
guides = (
{
angle = 90;
pos = (-23,98);
},
{
angle = 270;
pos = (383,359);
}
);
layerId = m01;
shapes = (
{
closed = 1;
nodes = (
(376,96,o),
(323,42,o),
(236,42,cs),
(160,42,o),
(118,81,o),
(118,140,cs),
(118,231,o),
(217,261,o),
(274,272,cs),
(322,281,o),
(370,284,o),
(423,294,c),
(423,330,l),
(399,326,o),
(338,323,o),
(254,310,cs),
(170,297,o),
(38,266,o),
(38,135,cs),
(38,52,o),
(93,-14,o),
(200,-14,cs),
(341,-14,o),
(420,100,o),
(440,130,c),
(427,157,l)
);
},
{
closed = 1;
nodes = (
(163,517,o),
(92,456,o),
(81,411,cs),
(77,395,o),
(82,377,o),
(101,368,cs),
(121,359,o),
(141,367,o),
(153,381,c),
(178,438,o),
(207,476,o),
(276,476,cs),
(369,476,o),
(397,394,o),
(397,313,c),
(397,125,l),
(397,81,o),
(392,5,o),
(454,-8,cs),
(501,-18,o),
(545,17,o),
(560,57,c),
(548,64,l),
(535,45,o),
(511,38,o),
(493,48,cs),
(473,59,o),
(471,84,o),
(471,116,c),
(471,311,l),
(470,401,o),
(449,517,o),
(282,517,cs)
);
}
);
width = 595;
}
);
metricRight = n;
unicode = 97;
},
{
color = 4;
glyphname = b;
lastChange = "2023-11-21 16:11:35 +0000";
layers = (
{
guides = (
{
angle = 90;
pos = (84,802);
},
{
angle = 90;
pos = (187,120);
},
{
angle = 214.2408;
pos = (120,98);
}
);
layerId = m01;
shapes = (
{
closed = 1;
nodes = (
(115,-8,l),
(126,-13,l),
(189,59,l),
(189,706,l),
(188,742,o),
(190,775,o),
(197,816,c),
(178,816,l),
(39,803,l),
(35,788,l),
(72,781,o),
(115,749,o),
(115,722,c)
);
},
{
closed = 1;
nodes = (
(178,414,o),
(245,466,o),
(334,466,cs),
(427,466,o),
(493,399,o),
(493,263,cs),
(493,167,o),
(461,30,o),
(330,30,cs),
(266,30,o),
(188,70,o),
(189,158,c),
(134,100,l),
(162,43,o),
(229,-16,o),
(330,-16,cs),
(488,-16,o),
(581,127,o),
(581,267,cs),
(581,425,o),
(456,519,o),
(340,519,cs),
(245,519,o),
(177,463,o),
(152,385,c),
(152,327,l)
);
}
);
width = 629;
}
);
metricLeft = n;
metricRight = o;
unicode = 98;
},
{
glyphname = c;
lastChange = "2023-11-25 12:23:58 +0000";
layers = (
{
anchors = (
{
name = bottom;
pos = (257,0);
},
{
name = top;
pos = (279,500);
}
);
layerId = m01;
shapes = (
{
closed = 1;
nodes = (
(364,-24,o),
(434,4,o),
(477,81,c),
(454,97,l),
(417,49,o),
(366,23,o),
(314,23,cs),
(214,23,o),
(132,118,o),
(132,261,cs),
(132,414,o),
(225,465,o),
(293,465,cs),
(350,465,o),
(398,430,o),
(415,384,c),
(475,408,l),
(450,456,o),
(395,513,o),
(299,513,cs),
(147,513,o),
(46,376,o),
(48,228,cs),
(50,82,o),
(150,-24,o),
(294,-24,cs)
);
}
);
width = 525;
}
);
metricLeft = o;
metricRight = o;
unicode = 99;
},
{
color = 4;
glyphname = d;
lastChange = "2023-11-21 16:11:37 +0000";
layers = (
{
anchors = (
{
name = top;
pos = (313,500);
},
{
name = top3;
pos = (574,500);
}
);
guides = (
{
angle = 90;
pos = (48,225);
},
{
angle = 90;
pos = (424,368);
}
);
layerId = m01;
shapes = (
{
closed = 1;
nodes = (
(434,105,o),
(369,38,o),
(280,38,cs),
(184,38,o),
(134,105,o),
(134,227,cs),
(134,347,o),
(184,469,o),
(309,469,cs),
(356,469,o),
(413,452,o),
(447,414,c),
(471,443,l),
(435,483,o),
(383,519,o),
(307,519,cs),
(157,519,o),
(48,377,o),
(48,227,cs),
(48,79,o),
(155,-15,o),
(275,-15,cs),
(356,-15,o),
(414,28,o),
(440,73,c),
(434,181,l)
);
},
{
closed = 1;
nodes = (
(434,60,o),
(432,27,o),
(425,-14,c),
(444,-14,l),
(584,9,l),
(588,24,l),
(551,31,o),
(508,52,o),
(508,98,c),
(508,706,l),
(508,742,o),
(510,775,o),
(517,816,c),
(498,816,l),
(358,803,l),
(354,788,l),
(391,781,o),
(434,749,o),
(434,722,c),
(434,96,l)
);
}
);
width = 623;
}
);
metricLeft = o;
metricRight = n;
unicode = 100;
},
{
glyphname = e;
lastChange = "2023-11-25 12:24:00 +0000";
layers = (
{
anchors = (
{
name = bottom;
pos = (273,0);
},
{
name = ogonek;
pos = (486,10);
},
{
name = top;
pos = (309,500);
}
);
layerId = m01;
shapes = (
{
closed = 1;
nodes = (
(463,314,l),
(115,314,l),
(103,276,l),
(527,276,l),
(527,422,o),
(416,519,o),
(294,519,cs),
(144,519,o),
(50,371,o),
(48,238,cs),
(46,73,o),
(168,-22,o),
(309,-22,cs),
(388,-22,o),
(443,7,o),
(495,67,c),
(474,85,l),
(431,45,o),
(378,26,o),
(327,26,cs),
(228,26,o),
(136,98,o),
(134,241,cs),
(132,349,o),
(184,472,o),
(297,471,cs),
(388,470,o),
(442,388,o),
(442,290,c)
);
}
);
width = 575;
}
);
metricLeft = o;
metricRight = o;
unicode = 101;
},
{
glyphname = f;
lastChange = "2023-11-25 12:58:25 +0000";
layers = (
{
hints = (
{
name = _corner.origin;
origin = (0,6);
scale = (1.1,1);
type = Corner;
},
{
name = _corner.origin;
options = 1;
origin = (0,7);
scale = (-1.25,1);
type = Corner;
}
);
layerId = m01;
shapes = (
{
closed = 1;
nodes = (
(215,817,o),
(170,806,o),
(134,773,cs),
(58,706,o),
(109,606,o),
(114,488,c),
(114,0,l),
(188,0,l),
(188,488,l),
(188,585,o),
(109,688,o),
(168,747,cs),
(184,763,o),
(206,771,o),
(233,771,cs),
(269,771,o),
(311,757,o),
(330,718,c),
(354,711,o),
(376,721,o),
(384,734,cs),
(392,747,o),
(391,768,o),
(379,782,cs),
(357,806,o),
(315,817,o),
(269,817,cs)
);
},
{
closed = 1;
nodes = (
(35,462,l),
(321,462,l),
(339,500,l),
(120,500,l),
(35,495,l)
);
}
);
width = 398;
}
);
metricLeft = n;
unicode = 102;
},
{
glyphname = g;
lastChange = "2023-11-21 15:53:58 +0000";
layers = (
{
anchors = (
{
name = top;
pos = (251,500);
}
);
layerId = m01;
shapes = (
{
closed = 1;
nodes = (
(154,13,o),
(33,-13,o),
(33,-132,cs),
(33,-260,o),
(177,-276,o),
(261,-276,cs),
(415,-276,o),
(552,-223,o),
(552,-98,cs),
(552,-22,o),
(502,28,o),
(375,40,cs),
(212,55,ls),
(160,60,o),
(115,71,o),
(115,105,cs),
(115,135,o),
(158,152,o),
(178,161,c),
(160,188,l),
(116,172,o),
(50,137,o),
(52,78,cs),
(55,5,o),
(131,-16,o),
(208,-22,cs),
(375,-35,ls),
(457,-41,o),
(475,-83,o),
(475,-118,cs),
(475,-198,o),
(378,-234,o),
(274,-234,cs),
(174,-234,o),
(104,-200,o),
(104,-118,cs),
(104,-28,o),
(200,-13,o),
(248,6,c),
(244,21,l)
);
},
{
closed = 1;
nodes = (
(489,447,o),
(386,515,o),
(273,515,cs),
(130,515,o),
(46,409,o),
(46,309,cs),
(46,199,o),
(148,130,o),
(263,130,cs),
(404,130,o),
(489,237,o),
(489,336,cs)
);
},
{
closed = 1;
nodes = (
(404,234,o),
(355,172,o),
(270,172,cs),
(167,172,o),
(131,262,o),
(131,333,cs),
(131,413,o),
(177,474,o),
(264,474,cs),
(369,474,o),
(404,386,o),
(404,316,cs)
);
},
{
closed = 1;
nodes = (
(530,452,o),
(540,447,o),
(551,436,c),
(566,436,o),
(580,445,o),
(585,461,cs),
(592,483,o),
(577,507,o),
(549,515,cs),
(524,522,o),
(483,518,o),
(452,496,cs),
(423,475,o),
(407,442,o),
(396,402,c),
(408,397,l),
(423,421,o),
(437,440,o),
(456,450,cs),
(478,459,o),
(496,461,o),
(515,456,cs)
);
}
);
width = 622;
}
);
unicode = 103;
},
{
glyphname = h;
lastChange = "2023-10-12 15:30:58 +0000";
layers = (
{
anchors = (
{
name = top2;
pos = (348,555);
}
);
guides = (
{
angle = 90;
pos = (80,802);
},
{
pos = (191,814);
}
);
hints = (
{
name = _corner.origin2;
options = 1;
origin = (0,0);
scale = (-1,1);
type = Corner;
},
{
name = _corner.origin2;
origin = (0,11);
type = Corner;
},
{
name = _corner.origin2;
origin = (1,13);
scale = (-1,-1);
type = Corner;
},
{
name = _corner.origin;
options = 1;
origin = (1,14);
scale = (1,-1);
type = Corner;
}
);
layerId = m01;
shapes = (
{
closed = 1;
nodes = (
(184,0,l),
(184,704,l),
(183,740,o),
(185,773,o),
(192,814,c),
(173,814,l),
(40,801,l),
(35,786,l),
(76,775,o),
(110,756,o),
(110,720,c),
(110,0,l)
);
},
{
closed = 1;
nodes = (
(507,430,o),
(466,507,o),
(347,507,cs),
(226,507,o),
(161,387,o),
(132,334,c),
(154,312,l),
(172,355,o),
(224,439,o),
(314,439,cs),
(419,439,o),
(434,368,o),
(433,268,c),
(431,0,l),
(508,0,l),
(507,268,l)
);
}
);
width = 615;
}
);
metricLeft = n;
unicode = 104;
},
{
glyphname = idotless;
lastChange = "2023-10-12 15:31:26 +0000";
layers = (
{
anchors = (
{
name = bottom;
pos = (152,0);
},
{
name = ogonek;
pos = (259,10);
},
{
name = top;
pos = (143,500);
}
);
hints = (
{
name = _corner.origin2;
options = 1;
origin = (0,0);
scale = (-1.1,1);
type = Corner;
},
{
name = _corner.origin2;
origin = (0,11);
scale = (1.1,1);
type = Corner;
}
);
layerId = m01;
shapes = (
{
closed = 1;
nodes = (
(189,0,l),
(189,390,l),
(188,426,o),
(190,459,o),
(197,500,c),
(178,500,l),
(39,487,l),
(35,472,l),
(72,465,o),
(115,443,o),
(115,406,c),
(115,0,l)
);
}
);
width = 306;
}
);
metricLeft = n;
unicode = 305;
},
{
glyphname = jdotless;
lastChange = "2023-10-12 15:31:44 +0000";
layers = (
{
anchors = (
{
name = top;
pos = (143,500);
}
);
guides = (
{
angle = 90;
pos = (141,608);
}
);
layerId = m01;
shapes = (
{
closed = 1;
nodes = (
(188,426,o),
(190,459,o),
(197,500,c),
(178,500,l),
(39,487,l),
(35,472,l),
(72,465,o),
(115,443,o),
(115,406,c),
(115,0,l),
(115,-59,o),
(78,-129,o),
(35,-176,c),
(49,-190,l),
(86,-167,o),
(120,-142,o),
(147,-107,cs),
(175,-69,o),
(189,-27,o),
(189,33,c),
(189,390,l)
);
}
);
width = 235;
}
);
metricRight = idotless;
unicode = 567;
},
{
glyphname = k;
lastChange = "2023-11-01 13:29:51 +0000";
layers = (
{
anchors = (
{
name = bottom2;
pos = (301,0);
},
{
name = top2;
pos = (433,500);
}
);
guides = (
{
pos = (615,549);
},
{
pos = (280,70);
},
{
angle = 90;
pos = (86,802);
},
{
angle = 90;
pos = (188,90);
}
);
hints = (
{
name = _corner.origin2;
origin = (2,0);
scale = (1.1,1);
type = Corner;
},
{
name = _corner.origin2;
options = 1;
origin = (2,1);
scale = (1.1,-1);
type = Corner;
},
{
name = _corner.origin;
options = 1;
origin = (0,7);
scale = (-1.4,1.4);
type = Corner;
}
);
layerId = m01;
shapes = (
{
closed = 1;
nodes = (
(174,256,l),
(174,204,l),
(439,439,l),
(464,461,o),
(496,479,o),
(527,487,c),
(524,500,l),
(445,500,l)
);
},
{
closed = 1;
nodes = (
(243,298,l),
(381,83,l),
(400,57,o),
(394,28,o),
(374,14,c),
(378,1,l),
(578,1,l),
(580,14,l),
(537,28,o),
(496,48,o),
(464,91,c),
(299,348,l)
);
},
{
closed = 1;
nodes = (
(114,0,l),
(188,0,l),
(188,706,l),
(187,742,o),
(189,775,o),
(196,816,c),
(177,816,l),
(44,803,l),
(40,788,l),
(77,781,o),
(114,749,o),
(114,722,c)
);
}
);
width = 620;
}
);
metricLeft = n;
unicode = 107;
},
{
glyphname = l;
lastChange = "2023-11-01 13:29:01 +0000";
layers = (
{
anchors = (
{
name = bottom2;
pos = (152,0);
},
{
name = top2;
pos = (146,841);
},
{
name = top3;
pos = (264,500);
}
);
guides = (
{
pos = (247,8);
},
{
angle = 90;
pos = (86,802);
},
{
pos = (197,816);
},
{
angle = 90;
pos = (115,706);
}
);
hints = (
{
name = _corner.origin2;
options = 1;
origin = (0,10);
scale = (1.1,-1);
type = Corner;
},
{
name = _corner.origin2;
origin = (0,9);
scale = (1.1,1);
type = Corner;
}
);
layerId = m01;
shapes = (
{
closed = 1;
nodes = (
(189,742,o),
(191,775,o),
(198,816,c),
(179,816,l),
(39,803,l),
(35,788,l),
(72,781,o),
(115,749,o),
(115,722,c),
(115,0,l),
(189,0,l),
(189,706,l)
);
}
);
width = 303;
}
);
metricLeft = n;
metricRight = n;
unicode = 108;
},
{
glyphname = lslash;
lastChange = "2023-11-01 13:23:33 +0000";
layers = (
{
guides = (
{
angle = 90;
pos = (91,706);
}
);
hints = (
{
name = _corner.origin2;
origin = (2,9);
scale = (1.1,1);
type = Corner;
},
{
name = _corner.origin2;
options = 1;
origin = (2,10);
scale = (1.1,-1);
type = Corner;
}
);
layerId = m01;
shapes = (
{
closed = 1;
nodes = (
(26,222,l),
(120,273,l),
(120,328,l),
(26,277,l)
);
},
{
closed = 1;
nodes = (
(140,290,l),
(256,353,l),
(256,408,l),
(140,345,l)
);
},
{
closed = 1;
nodes = (
(169,742,o),
(171,775,o),
(178,816,c),
(159,816,l),
(19,803,l),
(15,788,l),
(52,781,o),
(95,749,o),
(95,722,c),
(95,0,l),
(169,0,l),
(169,706,l)
);
}
);
width = 291;
}
);
metricRight = d;
unicode = 322;
},
{
glyphname = m;
lastChange = "2023-10-12 15:33:36 +0000";
layers = (
{
guides = (
{
angle = 90;
pos = (31,12);
}
);
hints = (
{
name = _corner.origin2;
options = 1;
origin = (0,0);
scale = (-1,1);
type = Corner;
},
{
name = _corner.origin2;
origin = (0,11);
type = Corner;
},
{
name = _corner.origin2;
origin = (1,13);
scale = (-1,-1);
type = Corner;
},
{
name = _corner.origin;
options = 1;
origin = (1,14);
scale = (1,-1);
type = Corner;
},
{
name = _corner.origin2;
origin = (2,13);
scale = (-1,-1);
type = Corner;
},
{
name = _corner.origin;
options = 1;
origin = (2,14);
scale = (1,-1);
type = Corner;
}
);
layerId = m01;
shapes = (
{
closed = 1;
nodes = (
(184,0,l),
(184,390,l),
(183,426,o),
(185,459,o),
(192,500,c),
(173,500,l),
(40,487,l),
(35,472,l),
(76,461,o),
(110,442,o),
(110,406,c),
(110,0,l)
);
},
{
closed = 1;
nodes = (
(500,421,o),
(453,507,o),
(346,507,cs),
(221,507,o),
(164,384,o),
(135,331,c),
(154,312,l),
(172,355,o),
(219,439,o),
(314,439,cs),
(407,439,o),
(429,359,o),
(427,268,c),
(427,0,l),
(501,0,l),
(501,268,l)
);
},
{
closed = 1;
nodes = (
(818,421,o),
(775,507,o),
(667,507,cs),
(539,507,o),
(477,387,o),
(448,334,c),
(470,312,l),
(488,355,o),
(537,439,o),
(632,439,cs),
(725,439,o),
(747,359,o),
(745,268,c),
(745,0,l),
(819,0,l),
(819,268,l)
);
}
);
width = 926;
}
);
metricLeft = n;
metricRight = n;
unicode = 109;
},
{
glyphname = n;
lastChange = "2023-10-12 15:14:59 +0000";
layers = (
{
anchors = (
{
name = bottom2;
pos = (309,0);
},
{
name = top;
pos = (330,500);
}
);
guides = (
{
angle = 90;
pos = (31,14);
}
);
hints = (
{
name = _corner.origin2;
origin = (0,11);
type = Corner;
},
{
name = _corner.origin2;
options = 1;
origin = (0,0);
scale = (-1,1);
type = Corner;
},
{
name = _corner.origin2;
origin = (1,13);
scale = (-1.1,-1);
type = Corner;
},
{
name = _corner.origin;
options = 1;
origin = (1,14);
scale = (1,-1);
type = Corner;
}
);
layerId = m01;
shapes = (
{
closed = 1;
nodes = (
(184,0,l),
(184,390,l),
(183,426,o),
(185,459,o),
(192,500,c),
(173,500,l),
(40,487,l),
(35,472,l),
(76,461,o),
(110,442,o),
(110,406,c),
(110,0,l)
);
},
{
closed = 1;
nodes = (
(507,421,o),
(463,507,o),
(354,507,cs),
(226,507,o),
(161,387,o),
(132,334,c),
(154,312,l),
(172,355,o),
(224,439,o),
(320,439,cs),
(414,439,o),
(436,359,o),
(434,268,c),
(434,0,l),
(508,0,l),
(508,268,l)
);
}
);
width = 615;
}
);
unicode = 110;
},
{
glyphname = o;
lastChange = "2023-10-12 15:36:41 +0000";
layers = (
{
anchors = (
{
name = bottom;
pos = (306,0);
},
{
name = center;
pos = (296,250);
},
{
name = ogonek;
pos = (506,10);
},
{
name = top;
pos = (304,500);
},
{
name = topright;
pos = (541,500);
}
);
guides = (
{
angle = 90;
pos = (292,441);
}
);
layerId = m01;
shapes = (
{
closed = 1;
nodes = (
(543,422,o),
(431,519,o),
(301,519,cs),
(149,519,o),
(48,368,o),
(48,226,cs),
(48,66,o),
(170,-31,o),
(290,-31,cs),
(452,-31,o),
(543,120,o),
(543,262,cs)
);
},
{
closed = 1;
nodes = (
(460,92,o),
(394,17,o),
(301,17,cs),
(193,17,o),
(130,142,o),
(130,262,cs),
(130,396,o),
(207,471,o),
(290,471,cs),
(408,471,o),
(460,346,o),
(460,226,cs)
);
}
);
width = 591;
}
);
unicode = 111;
},
{
color = 4;
glyphname = p;
lastChange = "2023-11-21 16:11:30 +0000";
layers = (
{
guides = (
{
angle = 90;
pos = (138,314);
}
);
hints = (
{
name = _corner.origin;
origin = (0,10);
type = Corner;
},
{
name = _corner.origin;
options = 1;
origin = (0,11);
scale = (-1.3,1);
type = Corner;
}
);
layerId = m01;
shapes = (
{
closed = 1;
nodes = (
(189,390,l),
(188,426,o),
(190,459,o),
(197,500,c),
(178,500,l),
(39,487,l),
(35,472,l),
(72,465,o),
(115,433,o),
(115,406,c),
(115,-261,l),
(189,-261,l)
);
},
{
closed = 1;
nodes = (
(159,82,o),
(220,-15,o),
(340,-15,cs),
(482,-15,o),
(569,127,o),
(569,277,cs),
(569,425,o),
(462,514,o),
(342,514,cs),
(241,514,o),
(172,449,o),
(139,333,c),
(188,311,l),
(188,399,o),
(243,469,o),
(340,469,cs),
(433,469,o),
(483,399,o),
(483,274,cs),
(483,127,o),
(438,35,o),
(338,35,cs),
(254,35,o),
(189,106,o),
(177,172,c),
(135,151,l)
);
}
);
width = 617;
}
);
metricLeft = n;
metricRight = o;
unicode = 112;
},
{
color = 4;
glyphname = q;
lastChange = "2023-11-21 16:11:33 +0000";
layers = (
{
guides = (
{
pos = (333,-216);
},
{
angle = 90;
pos = (48,225);
},
{
angle = 90;
pos = (426,270);
}
);
hints = (
{
name = _corner.origin;
options = 1;
origin = (0,26);
scale = (-1.1,1);
type = Corner;
},
{
name = _corner.origin;
origin = (0,25);
scale = (1.3,1);
type = Corner;
}
);
layerId = m01;
shapes = (
{
closed = 1;
nodes = (
(398,509,o),
(361,519,o),
(317,519,cs),
(155,519,o),
(48,377,o),
(48,227,cs),
(48,79,o),
(155,-15,o),
(283,-15,cs),
(376,-15,o),
(450,35,o),
(478,151,c),
(447,173,l),
(429,86,o),
(374,28,o),
(285,28,cs),
(184,28,o),
(134,105,o),
(134,227,cs),
(134,347,o),
(184,469,o),
(309,469,cs),
(353,469,o),
(425,453,o),
(425,386,c),
(425,-261,l),
(499,-261,l),
(499,517,l),
(488,522,l),
(434,485,l)
);
}
);
width = 613;
}
);
metricLeft = o;
metricRight = d;
unicode = 113;
},
{
glyphname = r;
lastChange = "2023-10-15 14:16:04 +0000";
layers = (
{
anchors = (
{
name = bottom2;
pos = (152,0);
},
{
name = top;
pos = (236,480);
}
);
guides = (
{
angle = 90;
pos = (188,267);
}
);
hints = (
{
name = _corner.origin2;
options = 1;
origin = (0,0);
scale = (-1.25,1);
type = Corner;
},
{
name = _corner.origin2;
origin = (0,11);
scale = (1.1,1);
type = Corner;
}
);
layerId = m01;
shapes = (
{
closed = 1;
nodes = (
(189,0,l),
(189,390,l),
(188,426,o),
(190,459,o),
(197,500,c),
(178,500,l),
(39,487,l),
(35,472,l),
(72,465,o),
(115,433,o),
(115,406,c),
(115,0,l)
);
},
{
closed = 1;
nodes = (
(299,448,o),
(351,437,o),
(386,407,c),
(404,406,o),
(422,415,o),
(430,432,cs),
(441,455,o),
(431,481,o),
(403,498,cs),
(373,517,o),
(327,521,o),
(282,497,cs),
(208,459,o),
(174,367,o),
(156,311,c),
(174,302,l),
(193,364,o),
(225,414,o),
(265,432,cs)
);
}
);
width = 475;
}
);
metricLeft = n;
unicode = 114;
},
{
glyphname = s;
lastChange = "2023-11-25 12:24:04 +0000";
layers = (
{
anchors = (
{
name = bottom;
pos = (152,0);
},
{
name = bottom2;
pos = (234,0);
},
{
name = top;
pos = (213,500);
}
);
layerId = m01;
shapes = (
{
closed = 1;
nodes = (
(150,330,o),
(103,346,o),
(103,393,cs),
(103,440,o),
(148,478,o),
(215,478,cs),
(284,478,o),
(351,439,o),
(380,360,c),
(391,362,l),
(391,481,l),
(352,484,o),
(289,515,o),
(217,515,cs),
(124,515,o),
(39,462,o),
(39,366,cs),
(39,276,o),
(113,254,o),
(212,225,cs),
(324,192,o),
(373,174,o),
(373,119,cs),
(373,51,o),
(302,17,o),
(235,17,cs),
(153,17,o),
(85,69,o),
(49,161,c),
(35,158,l),
(35,45,l),
(88,4,o),
(160,-22,o),
(235,-22,cs),
(324,-22,o),
(435,15,o),
(435,134,cs),
(435,232,o),
(359,272,o),
(248,303,cs)
);
}
);
width = 475;
}
);
metricLeft = n;
unicode = 115;
},
{
glyphname = t;
lastChange = "2023-10-12 15:18:09 +0000";
layers = (
{
anchors = (
{
name = bottom;
pos = (203,0);
},
{
name = bottom2;
pos = (248,0);
},
{
name = top3;
pos = (415,380);
}
);
layerId = m01;
shapes = (
{
closed = 1;
nodes = (
(138,565,o),
(94,504,o),
(35,495,c),
(35,462,l),
(102,462,l),
(102,163,l),
(102,52,o),
(149,-13,o),
(245,-13,cs),
(313,-13,o),
(347,21,o),
(378,67,c),
(357,85,l),
(332,56,o),
(303,37,o),
(264,37,cs),
(199,37,o),
(175,90,o),
(176,163,c),
(176,462,l),
(331,462,l),
(349,500,l),
(176,500,l),
(176,657,l),
(138,657,l)
);
}
);
width = 401;
}
);
metricLeft = n;
unicode = 116;
},
{
glyphname = u;
lastChange = "2023-10-12 15:17:30 +0000";
layers = (
{
anchors = (
{
name = bottom;
pos = (320,0);
},
{
name = ogonek;
pos = (589,29);
},
{
name = top;
pos = (320,500);
},
{
name = topright;
pos = (565,500);
}
);
guides = (
{
angle = 90;
pos = (120,220);
},
{
angle = 90;
pos = (519,220);
}
);
hints = (
{
name = _corner.origin;
options = 1;
origin = (1,15);
scale = (-1.2,1);
type = Corner;
},
{
name = _corner.origin2;
options = 1;
origin = (0,1);
scale = (-1.2,1);
type = Corner;
},
{
name = _corner.origin;
options = 1;
origin = (0,3);
scale = (-1,1);
type = Corner;
}
);
layerId = m01;
shapes = (
{
closed = 1;
nodes = (
(513,505,l),
(439,497,l),
(439,-5,l),
(513,0,l)
);
},
{
closed = 1;
nodes = (
(120,219,l),
(120,66,o),
(151,-16,o),
(270,-16,cs),
(396,-16,o),
(461,100,o),
(490,153,c),
(468,175,l),
(450,132,o),
(398,50,o),
(303,50,cs),
(198,50,o),
(194,128,o),
(194,219,c),
(194,505,l),
(120,497,l)
);
}
);
width = 619;
}
);
unicode = 117;
},
{
glyphname = v;
lastChange = "2023-10-12 16:17:34 +0000";
layers = (
{
anchors = (
{
name = bottom;
pos = (283,0);
},
{
name = top;
pos = (283,500);
}
);
layerId = m01;
shapes = (
{
closed = 1;
nodes = (
(367,486,l),
(408,475,o),
(441,448,o),
(423,402,c),
(305,106,l),
(313,106,l),
(200,385,l),
(187,416,o),
(186,440,o),
(198,457,cs),
(211,476,o),
(238,484,o),
(264,486,c),
(262,500,l),
(18,500,l),
(15,486,l),
(61,473,o),
(87,455,o),
(108,410,c),
(280,-13,l),
(300,-13,l),
(467,410,l),
(488,455,o),
(516,474,o),
(562,486,c),
(559,500,l),
(370,500,l)
);
}
);
width = 577;
}
);
unicode = 118;
},
{
glyphname = w;
lastChange = "2023-10-12 16:17:36 +0000";
layers = (
{
anchors = (
{
name = bottom;
pos = (456,0);
},
{
name = top;
pos = (456,500);
}
);
layerId = m01;
shapes = (
{
closed = 1;
nodes = (
(776,455,o),
(804,474,o),
(850,486,c),
(847,500,l),
(658,500,l),
(655,486,l),
(696,475,o),
(729,448,o),
(711,402,c),
(593,106,l),
(601,106,l),
(490,385,l),
(477,416,o),
(476,439,o),
(487,456,cs),
(497,472,o),
(517,483,o),
(544,486,c),
(542,500,l),
(318,500,l),
(315,486,l),
(352,472,o),
(381,448,o),
(398,410,c),
(568,-13,l),
(588,-13,l),
(755,410,l)
);
},
{
closed = 1;
nodes = (
(188,416,o),
(187,440,o),
(199,457,cs),
(212,476,o),
(239,484,o),
(265,486,c),
(263,500,l),
(18,500,l),
(15,486,l),
(61,473,o),
(88,455,o),
(109,410,c),
(280,-13,l),
(300,-13,l),
(455,380,l),
(435,431,l),
(305,106,l),
(313,106,l),
(201,385,l)
);
}
);
width = 865;
}
);
unicode = 119;
},
{
glyphname = x;
lastChange = "2023-10-12 16:17:39 +0000";
layers = (
{
guides = (
{
angle = 90;
pos = (19,255);
}
);
layerId = m01;
shapes = (
{
closed = 1;
nodes = (
(441,420,l),
(460,444,o),
(491,474,o),
(533,487,c),
(529,500,l),
(362,500,l),
(358,487,l),
(389,480,o),
(414,443,o),
(386,410,c),
(290,292,l),
(313,261,l)
);
},
{
closed = 1;
nodes = (
(295,226,l),
(271,256,l),
(130,80,l),
(111,56,o),
(80,26,o),
(38,13,c),
(42,0,l),
(209,0,l),
(213,13,l),
(183,20,o),
(164,57,o),
(185,90,c)
);
},
{
closed = 1;
nodes = (
(227,406,l),
(198,448,o),
(227,481,o),
(264,486,c),
(262,500,l),
(38,500,l),
(35,486,l),
(81,473,o),
(113,447,o),
(137,410,c),
(363,90,l),
(387,62,o),
(370,19,o),
(333,14,c),
(335,0,l),
(559,0,l),
(562,14,l),
(518,28,o),
(486,55,o),
(459,90,c)
);
}
);
width = 597;
}
);
unicode = 120;
},
{
glyphname = y;
lastChange = "2023-11-25 12:43:50 +0000";
layers = (
{
anchors = (
{
name = bottom;
pos = (262,0);
},
{
name = top;
pos = (283,500);
}
);
guides = (
{
angle = 68.2946;
pos = (317,56);
},
{
angle = 68.2946;
pos = (307,106);
}
);
layerId = m01;
shapes = (
{
closed = 1;
nodes = (
(249,14,l),
(203,-100,l),
(173,-172,o),
(136,-189,o),
(83,-178,cs),
(54,-172,o),
(18,-175,o),
(11,-207,cs),
(5,-236,o),
(30,-258,o),
(73,-258,cs),
(126,-258,o),
(195,-225,o),
(232,-135,c),
(447,410,l),
(468,455,o),
(496,474,o),
(542,486,c),
(539,500,l),
(350,500,l),
(347,486,l),
(388,475,o),
(421,448,o),
(403,402,c),
(285,106,l),
(293,106,l),
(180,385,l),
(167,416,o),
(166,440,o),
(178,457,cs),
(191,476,o),
(218,484,o),
(244,486,c),
(242,500,l),
(-2,500,l),
(-5,486,l),
(41,473,o),
(67,455,o),
(88,410,c)
);
}
);
width = 542;
}
);
unicode = 121;
},
{
glyphname = z;
lastChange = "2023-10-12 16:17:48 +0000";
layers = (
{
anchors = (
{
name = top;
pos = (253,500);
}
);
guides = (
{
angle = -87.4762;
pos = (458,501);
},
{
angle = 267.4762;
pos = (62,501);
}
);
layerId = m01;
shapes = (
{
closed = 1;
nodes = (
(112,11,l),
(458,463,l),
(458,501,l),
(62,501,l),
(55,368,l),
(68,366,l),
(78,398,o),
(96,420,o),
(116,434,cs),
(144,454,o),
(178,459,o),
(210,459,cs),
(406,459,l),
(387,489,l),
(42,43,l),
(42,0,l),
(476,0,l),
(476,140,l),
(464,142,l),
(456,117,o),
(444,90,o),
(417,72,cs),
(396,57,o),
(365,47,o),
(307,47,c),
(98,47,l)
);
}
);
width = 510;
}
);
unicode = 122;
},
{
glyphname = zero;
lastChange = "2023-10-13 19:04:03 +0000";
layers = (
{
guides = (
{
locked = 1;
pos = (382,812);
},
{
locked = 1;
pos = (382,-22);
}
);
layerId = m01;
shapes = (
{
closed = 1;
nodes = (
(531,-22,o),
(685,128,o),
(685,395,cs),
(685,652,o),
(537,812,o),
(383,812,cs),
(234,812,o),
(80,662,o),
(80,395,cs),
(80,138,o),
(228,-22,o),
(383,-22,cs)
);
},
{
closed = 1;
nodes = (
(263,28,o),
(175,160,o),
(175,395,cs),
(175,637,o),
(268,762,o),
(383,762,cs),
(502,762,o),
(590,629,o),
(590,395,cs),
(590,153,o),
(497,28,o),
(383,28,cs)
);
}
);
width = 765;
}
);
unicode = 48;
},
{
glyphname = one;
lastChange = "2023-10-15 10:08:29 +0000";
layers = (
{
guides = (
{
locked = 1;
pos = (266,800);
},
{
pos = (266,800);
},
{
locked = 1;
pos = (269,0);
}
);
layerId = m01;
shapes = (
{
closed = 1;
nodes = (
(294,726,o),
(296,759,o),
(303,800,c),
(284,800,l),
(89,747,l),
(85,732,l),
(122,727,o),
(215,728,o),
(215,664,c),
(215,138,l),
(215,54,o),
(136,29,o),
(93,14,c),
(96,0,l),
(413,0,l),
(417,14,l),
(376,29,o),
(295,55,o),
(295,138,c),
(295,690,l)
);
}
);
width = 502;
}
);
unicode = 49;
},
{
glyphname = two;
lastChange = "2023-11-25 12:59:31 +0000";
layers = (
{
guides = (
{
locked = 1;
pos = (339,812);
},
{
locked = 1;
pos = (371,0);
}
);
layerId = m01;
shapes = (
{
closed = 1;
nodes = (
(208,74,l),
(515,416,l),
(579,484,o),
(620,542,o),
(620,615,cs),
(620,735,o),
(509,821,o),
(378,821,cs),
(250,821,o),
(173,746,o),
(127,649,c),
(111,598,o),
(154,555,o),
(208,590,c),
(208,694,o),
(278,771,o),
(374,771,cs),
(457,771,o),
(536,712,o),
(536,615,cs),
(536,539,o),
(487,489,o),
(436,431,c),
(85,20,l),
(85,0,l),
(621,0,l),
(639,74,l)
);
}
);
width = 732;
}
);
unicode = 50;
},
{
glyphname = three;
lastChange = "2023-11-01 14:01:12 +0000";
layers = (
{
guides = (
{
locked = 1;
pos = (343,812);
}
);
layerId = m01;
shapes = (
{
closed = 1;
nodes = (
(80,279,o),
(154,271,o),
(169,240,c),
(186,75,o),
(296,22,o),
(375,22,cs),
(477,22,o),
(561,97,o),
(561,192,cs),
(561,302,o),
(453,395,o),
(265,402,c),
(265,422,l),
(365,437,o),
(509,526,o),
(509,637,cs),
(509,710,o),
(447,771,o),
(366,771,cs),
(288,771,o),
(208,714,o),
(208,610,c),
(154,575,o),
(111,618,o),
(127,669,c),
(173,766,o),
(265,821,o),
(369,821,cs),
(499,821,o),
(587,739,o),
(587,644,cs),
(587,545,o),
(494,468,o),
(417,431,c),
(590,408,o),
(646,309,o),
(646,219,cs),
(646,91,o),
(539,-24,o),
(370,-24,cs),
(253,-24,o),
(97,35,o),
(85,215,cs)
);
}
);
width = 731;
}
);
unicode = 51;
},
{
glyphname = four;
lastChange = "2023-11-21 16:30:40 +0000";
layers = (
{
guides = (
{
pos = (358,14);
}
);
layerId = m01;
shapes = (
{
closed = 1;
nodes = (
(530,800,l),
(477,800,l),
(85,298,l),
(85,228,l),
(670,228,l),
(687,298,l),
(114,298,l),
(126,269,l),
(474,712,l),
(450,712,l),
(450,108,l),
(450,44,o),
(401,27,o),
(358,14,c),
(361,0,l),
(618,0,l),
(622,14,l),
(581,27,o),
(530,45,o),
(530,108,c)
);
}
);
width = 755;
}
);
unicode = 52;
},
{
glyphname = five;
lastChange = "2023-11-21 15:48:55 +0000";
layers = (
{
layerId = m01;
shapes = (
{
closed = 1;
nodes = (
(112,435,l),
(125,425,l),
(353,414,o),
(500,351,o),
(500,210,cs),
(500,118,o),
(435,35,o),
(327,35,cs),
(231,35,o),
(131,100,o),
(99,230,c),
(85,227,l),
(85,60,l),
(151,21,o),
(211,-13,o),
(300,-13,cs),
(476,-13,o),
(571,93,o),
(571,238,cs),
(571,382,o),
(477,491,o),
(172,502,c),
(201,689,l),
(513,689,l),
(531,763,l),
(161,763,l)
);
}
);
width = 656;
}
);
unicode = 53;
},
{
glyphname = six;
lastChange = "2023-10-15 13:26:22 +0000";
layers = (
{
layerId = m01;
shapes = (
{
closed = 1;
nodes = (
(177,293,l),
(177,372,o),
(247,459,o),
(348,459,cs),
(446,459,o),
(518,377,o),
(518,251,cs),
(518,153,o),
(473,28,o),
(356,28,cs),
(242,28,o),
(177,151,o),
(177,335,cs),
(177,656,o),
(374,768,o),
(538,788,c),
(531,831,l),
(344,811,o),
(85,670,o),
(85,335,cs),
(85,168,o),
(150,-22,o),
(356,-22,cs),
(545,-22,o),
(605,143,o),
(605,258,cs),
(605,402,o),
(508,518,o),
(366,518,cs),
(278,518,o),
(190,466,o),
(143,347,c)
);
}
);
width = 690;
}
);
unicode = 54;
},
{
glyphname = seven;
lastChange = "2023-11-21 15:57:25 +0000";
layers = (
{
guides = (
{
pos = (92,783);
}
);
layerId = m01;
shapes = (
{
closed = 1;
nodes = (
(114,800,l),
(634,800,l),
(634,768,l),
(326,0,l),
(233,0,l),
(563,726,l),
(96,726,l)
);
}
);
width = 719;
}
);
unicode = 55;
},
{
glyphname = eight;
lastChange = "2023-11-25 12:59:01 +0000";
layers = (
{
layerId = m01;
shapes = (
{
closed = 1;
nodes = (
(495,435,o),
(606,530,o),
(606,642,cs),
(606,745,o),
(512,821,o),
(371,821,cs),
(200,821,o),
(126,726,o),
(126,628,cs),
(126,499,o),
(258,429,o),
(363,387,cs),
(509,329,o),
(563,261,o),
(563,191,cs),
(563,108,o),
(487,27,o),
(370,27,cs),
(240,27,o),
(171,123,o),
(171,220,cs),
(171,327,o),
(252,405,o),
(358,405,c),
(358,442,l),
(189,442,o),
(85,326,o),
(85,201,cs),
(85,69,o),
(197,-24,o),
(361,-24,cs),
(556,-24,o),
(648,116,o),
(648,228,cs),
(648,326,o),
(578,402,o),
(417,467,cs),
(279,523,o),
(197,564,o),
(197,645,cs),
(197,717,o),
(261,772,o),
(362,772,cs),
(483,772,o),
(533,692,o),
(533,628,cs),
(533,543,o),
(447,472,o),
(373,472,c),
(373,435,l)
);
}
);
width = 733;
}
);
unicode = 56;
},
{
glyphname = nine;
lastChange = "2023-10-15 13:26:26 +0000";
layers = (
{
guides = (
{
pos = (335,825);
}
);
layerId = m01;
shapes = (
{
closed = 1;
nodes = (
(513,510,l),
(513,431,o),
(443,344,o),
(342,344,cs),
(244,344,o),
(172,426,o),
(172,552,cs),
(172,650,o),
(217,775,o),
(334,775,cs),
(448,775,o),
(513,652,o),
(513,468,cs),
(513,147,o),
(336,35,o),
(172,15,c),
(179,-28,l),
(366,-8,o),
(605,133,o),
(605,468,cs),
(605,635,o),
(540,825,o),
(334,825,cs),
(145,825,o),
(85,660,o),
(85,545,cs),
(85,401,o),
(182,285,o),
(324,285,cs),
(412,285,o),
(500,337,o),
(547,456,c)
);
}
);
width = 690;
}
);
unicode = 57;
},
{
glyphname = period;
lastChange = "2023-10-08 20:12:11 +0000";
layers = (
{
layerId = m01;
shapes = (
{
closed = 1;
nodes = (
(99,0,o),
(123,24,o),
(123,54,cs),
(123,84,o),
(99,108,o),
(69,108,cs),
(39,108,o),
(15,84,o),
(15,54,cs),
(15,24,o),
(39,0,o),
(69,0,cs)
);
}
);
width = 138;
}
);
unicode = 46;
},
{
glyphname = comma;
lastChange = "2023-10-08 18:37:33 +0000";
layers = (
{
layerId = m01;
shapes = (
{
closed = 1;
nodes = (
(138,83,o),
(118,108,o),
(88,108,cs),
(57,108,o),
(37,86,o),
(37,56,cs),
(37,31,o),
(64,16,o),
(64,-14,cs),
(64,-38,o),
(40,-55,o),
(25,-65,c),
(37,-82,l),
(89,-59,o),
(138,-12,o),
(138,53,cs)
);
}
);
width = 163;
}
);
unicode = 44;
},
{
glyphname = colon;
lastChange = "2023-10-15 14:40:50 +0000";
layers = (
{
layerId = m01;
shapes = (
{
closed = 1;
nodes = (
(119,0,o),
(143,24,o),
(143,54,cs),
(143,84,o),
(119,108,o),
(89,108,cs),
(59,108,o),
(35,84,o),
(35,54,cs),
(35,24,o),
(59,0,o),
(89,0,cs)
);
},
{
closed = 1;
nodes = (
(119,405,o),
(143,429,o),
(143,459,cs),
(143,489,o),
(119,513,o),
(89,513,cs),
(59,513,o),
(35,489,o),
(35,459,cs),
(35,429,o),
(59,405,o),
(89,405,cs)
);
}
);
width = 178;
}
);
unicode = 58;
},
{
glyphname = semicolon;
lastChange = "2023-10-15 14:40:56 +0000";
layers = (
{
guides = (
{
angle = 90;
pos = (44,409);
},
{
angle = 90;
pos = (152,409);
}
);
layerId = m01;
shapes = (
{
closed = 1;
nodes = (
(128,405,o),
(152,429,o),
(152,459,cs),
(152,489,o),
(128,513,o),
(98,513,cs),
(68,513,o),
(44,489,o),
(44,459,cs),
(44,429,o),
(68,405,o),
(98,405,cs)
);
},
{
closed = 1;
nodes = (
(148,83,o),
(128,108,o),
(98,108,cs),
(67,108,o),
(47,86,o),
(47,56,cs),
(47,31,o),
(74,16,o),
(74,-14,cs),
(74,-38,o),
(50,-55,o),
(35,-65,c),
(47,-82,l),
(99,-59,o),
(148,-12,o),
(148,53,cs)
);
}
);
width = 187;
}
);
unicode = 59;
},
{
glyphname = exclam;
lastChange = "2023-10-15 15:33:45 +0000";
layers = (
{
guides = (
{
angle = 90;
pos = (143,54);
},
{
angle = 90;
pos = (35,54);
}
);
layerId = m01;
shapes = (
{
closed = 1;
nodes = (
(119,0,o),
(143,24,o),
(143,54,cs),
(143,84,o),
(119,108,o),
(89,108,cs),
(59,108,o),
(35,84,o),
(35,54,cs),
(35,24,o),
(59,0,o),
(89,0,cs)
);
},
{
closed = 1;
nodes = (
(69,188,l),
(109,188,l),
(139,684,l),
(139,709,o),
(118,730,o),
(89,730,cs),
(60,730,o),
(39,709,o),
(39,684,c)
);
}
);
width = 178;
}
);
unicode = 33;
},
{
glyphname = exclamdown;
lastChange = "2023-10-15 14:06:07 +0000";
layers = (
{
layerId = m01;
shapes = (
{
closed = 1;
nodes = (
(59,513,o),
(35,489,o),
(35,459,cs),
(35,429,o),
(59,405,o),
(89,405,cs),
(119,405,o),
(143,429,o),
(143,459,cs),
(143,489,o),
(119,513,o),
(89,513,cs)
);
},
{
closed = 1;
nodes = (
(39,-196,o),
(60,-217,o),
(89,-217,cs),
(118,-217,o),
(139,-196,o),
(139,-171,c),
(109,325,l),
(69,325,l),
(39,-171,l)
);
}
);
width = 178;
}
);
unicode = 161;
},
{
glyphname = question;
lastChange = "2023-10-15 15:42:54 +0000";
layers = (
{
layerId = m01;
shapes = (
{
closed = 1;
nodes = (
(330,0,o),
(354,24,o),
(354,54,cs),
(354,84,o),
(330,108,o),
(300,108,cs),
(270,108,o),
(246,84,o),
(246,54,cs),
(246,24,o),
(270,0,o),
(300,0,cs)
);
},
{
closed = 1;
nodes = (
(320,259,o),
(372,314,o),
(422,353,cs),
(469,389,o),
(541,451,o),
(541,549,cs),
(541,653,o),
(460,730,o),
(332,730,cs),
(226,730,o),
(144,675,o),
(98,578,c),
(82,527,o),
(125,484,o),
(179,519,c),
(179,623,o),
(249,680,o),
(327,680,cs),
(398,680,o),
(460,624,o),
(460,546,cs),
(460,481,o),
(417,435,o),
(382,397,cs),
(319,329,o),
(280,277,o),
(280,188,c),
(320,188,l)
);
}
);
width = 636;
}
);
unicode = 63;
},
{
glyphname = questiondown;
lastChange = "2023-10-15 15:42:56 +0000";
layers = (
{
layerId = m01;
shapes = (
{
closed = 1;
nodes = (
(296,513,o),
(272,489,o),
(272,459,cs),
(272,429,o),
(296,405,o),
(326,405,cs),
(356,405,o),
(380,429,o),
(380,459,cs),
(380,489,o),
(356,513,o),
(326,513,cs)
);
},
{
closed = 1;
nodes = (
(306,254,o),
(254,199,o),
(204,160,cs),
(157,124,o),
(85,62,o),
(85,-36,cs),
(85,-140,o),
(166,-217,o),
(294,-217,cs),
(400,-217,o),
(482,-162,o),
(528,-65,c),
(544,-14,o),
(501,29,o),
(447,-6,c),
(447,-110,o),
(377,-167,o),
(299,-167,cs),
(228,-167,o),
(166,-111,o),
(166,-33,cs),
(166,32,o),
(209,78,o),
(244,116,cs),
(307,184,o),
(346,236,o),
(346,325,c),
(306,325,l)
);
}
);
width = 616;
}
);
unicode = 191;
},
{
glyphname = asterisk;
lastChange = "2023-10-15 17:47:03 +0000";
layers = (
{
guides = (
{
pos = (235,717);
},
{
pos = (235,373);
}
);
layerId = m01;
shapes = (
{
closed = 1;
nodes = (
(213,645,o),
(229,596,o),
(224,546,c),
(246,546,l),
(241,596,o),
(257,645,o),
(262,695,c),
(262,709,o),
(251,720,o),
(235,720,cs),
(219,720,o),
(208,709,o),
(208,695,c)
);
},
{
closed = 1;
nodes = (
(208,396,o),
(219,385,o),
(235,385,cs),
(251,385,o),
(262,396,o),
(262,410,c),
(257,460,o),
(241,510,o),
(246,560,c),
(224,560,l),
(229,510,o),
(213,460,o),
(208,410,c)
);
},
{
closed = 1;
nodes = (
(304,619,o),
(269,581,o),
(223,560,c),
(234,541,l),
(275,570,o),
(326,581,o),
(371,602,c),
(383,609,o),
(388,624,o),
(380,637,cs),
(372,651,o),
(356,655,o),
(344,648,c)
);
},
{
closed = 1;
nodes = (
(85,499,o),
(81,484,o),
(89,470,cs),
(97,456,o),
(112,452,o),
(125,459,c),
(165,488,o),
(201,527,o),
(246,548,c),
(235,567,l),
(195,538,o),
(143,526,o),
(98,506,c)
);
},
{
closed = 1;
nodes = (
(326,526,o),
(275,538,o),
(234,567,c),
(223,548,l),
(269,527,o),
(304,488,o),
(345,460,c),
(357,453,o),
(372,456,o),
(379,470,cs),
(388,483,o),
(383,499,o),
(371,506,c)
);
},
{
closed = 1;
nodes = (
(112,656,o),
(97,652,o),
(89,638,cs),
(81,624,o),
(85,609,o),
(98,601,c),
(143,581,o),
(195,570,o),
(235,541,c),
(246,560,l),
(201,580,o),
(165,619,o),
(125,648,c)
);
}
);
width = 469;
}
);
unicode = 42;
},
{
glyphname = numbersign;
lastChange = "2023-10-15 18:02:44 +0000";
layers = (
{
guides = (
{
angle = 258.7752;
pos = (492,500);
},
{
angle = 258.7752;
pos = (91,500);
}
);
layerId = m01;
shapes = (
{
closed = 1;
nodes = (
(23,413,l),
(474,413,l),
(482,451,l),
(31,451,l)
);
},
{
closed = 1;
nodes = (
(-21,188,l),
(430,188,l),
(438,226,l),
(-13,226,l)
);
},
{
closed = 1;
nodes = (
(123,35,l),
(225,604,l),
(187,604,l),
(85,35,l)
);
},
{
closed = 1;
nodes = (
(283,35,l),
(385,604,l),
(347,604,l),
(245,35,l)
);
}
);
width = 558;
}
);
unicode = 35;
},
{
glyphname = slash;
lastChange = "2023-10-15 18:17:06 +0000";
layers = (
{
guides = (
{
pos = (417,814);
},
{
pos = (143,-162);
}
);
layerId = m01;
shapes = (
{
closed = 1;
nodes = (
(80,-162,l),
(15,-162,l),
(245,814,l),
(310,814,l)
);
}
);
width = 325;
}
);
unicode = 47;
},
{
glyphname = backslash;
lastChange = "2023-10-15 18:17:08 +0000";
layers = (
{
layerId = m01;
shapes = (
{
closed = 1;
nodes = (
(80,814,l),
(310,-162,l),
(245,-162,l),
(15,814,l)
);
}
);
width = 325;
}
);
unicode = 92;
},
{
glyphname = hyphen;
lastChange = "2023-10-15 18:20:59 +0000";
layers = (
{
guides = (
{
locked = 1;
pos = (141,249);
},
{
angle = 90;
locked = 1;
pos = (279,327);
}
);
layerId = m01;
shapes = (
{
closed = 1;
nodes = (
(15,259,l),
(269,259,l),
(269,324,l),
(15,324,l)
);
}
);
width = 284;
}
);
unicode = 45;
},
{
glyphname = endash;
lastChange = "2023-10-15 18:31:34 +0000";
layers = (
{
guides = (
{
angle = 90;
pos = (523,354);
}
);
layerId = m01;
shapes = (
{
closed = 1;
nodes = (
(15,264,l),
(523,264,l),
(523,319,l),
(15,319,l)
);
}
);
width = 538;
}
);
unicode = 8211;
},
{
glyphname = emdash;
lastChange = "2023-10-15 18:31:32 +0000";
layers = (
{
guides = (
{
angle = 90;
pos = (777,259);
}
);
layerId = m01;
shapes = (
{
closed = 1;
nodes = (
(15,264,l),
(777,264,l),
(777,319,l),
(15,319,l)
);
}
);
width = 792;
}
);
unicode = 8212;
},
{
glyphname = underscore;
lastChange = "2023-10-15 19:15:11 +0000";
layers = (
{
layerId = m01;
shapes = (
{
closed = 1;
nodes = (
(15,-111,l),
(523,-111,l),
(523,-56,l),
(15,-56,l)
);
}
);
width = 538;
}
);
unicode = 95;
},
{
glyphname = parenleft;
lastChange = "2023-10-15 19:32:59 +0000";
layers = (
{
guides = (
{
angle = -30;
pos = (196,800);
},
{
angle = 30;
pos = (196,-140);
}
);
layerId = m01;
shapes = (
{
closed = 1;
nodes = (
(234,778,l),
(153,639,o),
(105,498,o),
(105,330,cs),
(105,163,o),
(154,21,o),
(234,-118,c),
(196,-140,l),
(87,2,o),
(15,137,o),
(15,330,cs),
(15,513,o),
(87,658,o),
(196,800,c)
);
}
);
width = 249;
}
);
unicode = 40;
},
{
glyphname = parenright;
lastChange = "2023-10-15 19:33:01 +0000";
layers = (
{
layerId = m01;
shapes = (
{
closed = 1;
nodes = (
(162,658,o),
(234,513,o),
(234,330,cs),
(234,137,o),
(162,2,o),
(53,-140,c),
(15,-118,l),
(95,21,o),
(144,163,o),
(144,330,cs),
(144,498,o),
(96,639,o),
(15,778,c),
(53,800,l)
);
}
);
width = 249;
}
);
unicode = 41;
},
{
glyphname = braceleft;
lastChange = "2023-10-15 20:22:25 +0000";
layers = (
{
layerId = m01;
shapes = (
{
closed = 1;
nodes = (
(116,309,o),
(134,199,o),
(106,86,cs),
(60,-100,o),
(179,-159,o),
(298,-140,c),
(293,-100,l),
(214,-105,o),
(139,-73,o),
(176,78,cs),
(204,194,o),
(186,289,o),
(99,328,c),
(186,370,o),
(204,461,o),
(176,576,cs),
(139,727,o),
(214,759,o),
(293,753,c),
(298,795,l),
(179,816,o),
(60,754,o),
(106,568,cs),
(134,455,o),
(116,346,o),
(15,346,c),
(15,309,l)
);
}
);
width = 313;
}
);
unicode = 123;
},
{
glyphname = braceright;
lastChange = "2023-10-15 20:22:28 +0000";
layers = (
{
layerId = m01;
shapes = (
{
closed = 1;
nodes = (
(298,346,l),
(197,346,o),
(179,455,o),
(207,568,cs),
(253,754,o),
(134,816,o),
(15,795,c),
(20,753,l),
(99,759,o),
(174,727,o),
(137,576,cs),
(109,461,o),
(127,370,o),
(214,328,c),
(127,289,o),
(109,194,o),
(137,78,cs),
(174,-73,o),
(99,-105,o),
(20,-100,c),
(15,-140,l),
(134,-159,o),
(253,-100,o),
(207,86,cs),
(179,199,o),
(197,309,o),
(298,309,c)
);
}
);
width = 313;
}
);
unicode = 125;
},
{
glyphname = bracketleft;
lastChange = "2023-10-15 20:22:28 +0000";
layers = (
{
guides = (
{
angle = 90;
pos = (15,662);
},
{
pos = (220,795);
},
{
pos = (220,-140);
}
);
layerId = m01;
shapes = (
{
closed = 1;
nodes = (
(222,-140,l),
(222,-100,l),
(44,-100,l),
(90,-118,l),
(90,776,l),
(44,755,l),
(222,755,l),
(222,795,l),
(15,795,l),
(15,-140,l)
);
}
);
width = 237;
}
);
unicode = 91;
},
{
glyphname = bracketright;
lastChange = "2023-10-15 20:22:28 +0000";
layers = (
{
layerId = m01;
shapes = (
{
closed = 1;
nodes = (
(222,795,l),
(15,795,l),
(15,755,l),
(193,755,l),
(147,776,l),
(147,-118,l),
(193,-100,l),
(15,-100,l),
(15,-140,l),
(222,-140,l)
);
}
);
width = 237;
}
);
unicode = 93;
},
{
color = 6;
glyphname = quotedbl;
lastChange = "2023-11-25 13:05:19 +0000";
layers = (
{
layerId = m01;
shapes = (
{
closed = 1;
nodes = (
(112,778,l),
(43,565,l),
(5,565,l),
(26,786,l),
(104,786,l)
);
},
{
closed = 1;
nodes = (
(226,778,l),
(157,565,l),
(119,565,l),
(140,786,l),
(218,786,l)
);
}
);
width = 241;
}
);
unicode = 34;
},
{
color = 6;
glyphname = quotesingle;
lastChange = "2023-11-25 13:08:35 +0000";
layers = (
{
layerId = m01;
shapes = (
{
closed = 1;
nodes = (
(112,778,l),
(43,565,l),
(5,565,l),
(26,786,l),
(104,786,l)
);
}
);
width = 127;
}
);
unicode = 39;
},
{
glyphname = at;
lastChange = "2023-10-18 20:42:05 +0000";
layers = (
{
guides = (
{
pos = (373,84);
},
{
pos = (432,500);
},
{
pos = (457,700);
},
{
pos = (411,-109);
}
);
layerId = m01;
shapes = (
{
closed = 1;
nodes = (
(255,-115,o),
(96,54,o),
(96,249,cs),
(96,410,o),
(209,554,o),
(385,560,cs),
(542,565,o),
(667,449,o),
(667,287,cs),
(667,237,o),
(655,170,o),
(630,132,cs),
(596,80,o),
(490,40,o),
(501,138,c),
(535,440,l),
(528,443,l),
(492,419,l),
(468,434,o),
(434,441,o),
(405,441,cs),
(298,441,o),
(209,347,o),
(193,247,cs),
(177,151,o),
(228,48,o),
(324,48,cs),
(404,48,o),
(473,121,o),
(491,198,c),
(471,212,l),
(459,155,o),
(402,86,o),
(332,86,cs),
(247,86,o),
(234,188,o),
(253,263,cs),
(269,328,o),
(317,408,o),
(402,408,cs),
(434,408,o),
(481,397,o),
(476,353,cs),
(447,118,l),
(435,17,o),
(597,1,o),
(682,135,cs),
(710,179,o),
(728,235,o),
(726,300,cs),
(720,482,o),
(565,602,o),
(384,597,cs),
(184,591,o),
(35,427,o),
(35,241,cs),
(35,23,o),
(234,-164,o),
(556,-72,c),
(551,-46,l)
);
}
);
width = 761;
}
);
unicode = 64;
},
{
color = 6;
glyphname = bar;
lastChange = "2023-10-15 19:49:34 +0000";
layers = (
{
guides = (
{
pos = (291,814);
}
);
layerId = m01;
shapes = (
{
closed = 1;
nodes = (
(155,-200,l),
(155,914,l),
(100,914,l),
(100,-200,l)
);
}
);
width = 255;
}
);
unicode = 124;
},
{
glyphname = dollar;
lastChange = "2023-10-15 20:30:22 +0000";
layers = (
{
layerId = m01;
shapes = (
{
closed = 1;
nodes = (
(65,271,l),
(65,77,l),
(98,73,o),
(125,64,o),
(155,50,cs),
(206,26,o),
(281,0,o),
(366,0,cs),
(514,0,o),
(641,82,o),
(641,223,cs),
(641,337,o),
(556,392,o),
(384,439,cs),
(251,472,o),
(157,517,o),
(157,609,cs),
(157,700,o),
(242,752,o),
(325,752,cs),
(440,752,o),
(543,663,o),
(591,568,c),
(605,570,l),
(583,758,l),
(556,760,o),
(531,766,o),
(511,772,cs),
(484,781,o),
(423,800,o),
(344,800,cs),
(211,800,o),
(88,717,o),
(88,580,cs),
(88,440,o),
(215,409,o),
(347,371,cs),
(525,325,o),
(573,273,o),
(573,206,cs),
(573,112,o),
(477,54,o),
(363,54,cs),
(239,54,o),
(113,120,o),
(81,272,c)
);
},
{
closed = 1;
nodes = (
(368,-140,l),
(518,914,l),
(463,914,l),
(313,-140,l)
);
},
{
closed = 1;
nodes = (
(233,-140,l),
(383,914,l),
(328,914,l),
(178,-140,l)
);
}
);
width = 706;
}
);
unicode = 36;
},
{
glyphname = plus;
lastChange = "2023-10-15 20:30:16 +0000";
layers = (
{
layerId = m01;
shapes = (
{
closed = 1;
nodes = (
(15,270,l),
(429,270,l),
(429,324,l),
(15,324,l)
);
},
{
closed = 1;
nodes = (
(195,504,l),
(195,90,l),
(249,90,l),
(249,504,l)
);
}
);
width = 444;
}
);
unicode = 43;
},
{
glyphname = minus;
lastChange = "2023-10-15 20:30:14 +0000";
layers = (
{
layerId = m01;
shapes = (
{
closed = 1;
nodes = (
(15,270,l),
(429,270,l),
(429,324,l),
(15,324,l)
);
}
);
width = 444;
}
);
unicode = 8722;
},
{
glyphname = equal;
lastChange = "2023-10-15 20:32:17 +0000";
layers = (
{
layerId = m01;
shapes = (
{
closed = 1;
nodes = (
(15,367,l),
(429,367,l),
(429,421,l),
(15,421,l)
);
},
{
closed = 1;
nodes = (
(17,188,l),
(431,188,l),
(431,242,l),
(17,242,l)
);
}
);
width = 446;
}
);
unicode = 61;
},
{
glyphname = percent;
lastChange = "2023-10-15 20:40:15 +0000";
layers = (
{
layerId = m01;
shapes = (
{
closed = 1;
nodes = (
(189,-23,l),
(124,-23,l),
(727,800,l),
(792,800,l)
);
},
{
closed = 1;
nodes = (
(882,317,o),
(799,389,o),
(701,389,cs),
(589,389,o),
(513,277,o),
(513,170,cs),
(513,51,o),
(604,-21,o),
(694,-21,cs),
(815,-21,o),
(882,91,o),
(882,197,cs)
);
},
{
closed = 1;
nodes = (
(802,70,o),
(771,15,o),
(700,15,cs),
(634,15,o),
(593,108,o),
(593,197,cs),
(593,298,o),
(634,353,o),
(695,353,cs),
(769,353,o),
(802,260,o),
(802,170,cs)
);
},
{
closed = 1;
nodes = (
(384,703,o),
(301,775,o),
(203,775,cs),
(91,775,o),
(15,663,o),
(15,556,cs),
(15,437,o),
(106,365,o),
(196,365,cs),
(317,365,o),
(384,477,o),
(384,583,cs)
);
},
{
closed = 1;
nodes = (
(304,456,o),
(263,401,o),
(202,401,cs),
(123,401,o),
(95,494,o),
(95,583,cs),
(95,684,o),
(145,739,o),
(197,739,cs),
(271,739,o),
(304,646,o),
(304,556,cs)
);
}
);
width = 897;
}
);
unicode = 37;
},
{
color = 9;
glyphname = dieresiscomb;
lastChange = "2023-05-15 10:50:43 +0000";
layers = (
{
anchors = (
{
name = _top;
pos = (274,500);
},
{
name = _top2;
pos = (274,555);
}
);
layerId = m01;
shapes = (
{
closed = 1;
nodes = (
(213,611,o),
(237,634,o),
(237,662,cs),
(237,690,o),
(213,713,o),
(183,713,cs),
(153,713,o),
(129,690,o),
(129,662,cs),
(129,634,o),
(153,611,o),
(183,611,cs)
);
},
{
closed = 1;
nodes = (
(399,611,o),
(424,634,o),
(424,662,cs),
(424,690,o),
(399,713,o),
(370,713,cs),
(341,713,o),
(316,690,o),
(316,662,cs),
(316,634,o),
(341,611,o),
(370,611,cs)
);
}
);
width = 553;
}
);
unicode = 776;
},
{
color = 9;
glyphname = dotaccentcomb;
lastChange = "2023-05-15 13:44:45 +0000";
layers = (
{
anchors = (
{
name = _top;
pos = (102,500);
},
{
name = _top2;
pos = (102,555);
}
);
layerId = m01;
shapes = (
{
closed = 1;
nodes = (
(132,608,o),
(156,632,o),
(156,662,cs),
(156,692,o),
(132,716,o),
(102,716,cs),
(72,716,o),
(48,692,o),
(48,662,cs),
(48,632,o),
(72,608,o),
(102,608,cs)
);
}
);
width = 202;
}
);
unicode = 775;
},
{
color = 9;
glyphname = gravecomb;
lastChange = "2023-05-15 13:44:56 +0000";
layers = (
{
anchors = (
{
name = _top;
pos = (274,500);
},
{
name = _top2;
pos = (274,555);
}
);
layerId = m01;
shapes = (
{
closed = 1;
nodes = (
(140,730,l),
(351,597,l),
(378,627,l),
(213,776,l),
(143,741,l)
);
}
);
width = 600;
}
);
unicode = 768;
},
{
color = 9;
glyphname = acutecomb;
lastChange = "2023-05-15 13:42:45 +0000";
layers = (
{
anchors = (
{
name = _top;
pos = (234,500);
},
{
name = _top2;
pos = (234,555);
}
);
layerId = m01;
shapes = (
{
closed = 1;
nodes = (
(305,776,l),
(140,627,l),
(167,597,l),
(378,730,l),
(375,741,l)
);
}
);
width = 518;
}
);
unicode = 769;
},
{
color = 9;
glyphname = hungarumlautcomb;
lastChange = "2023-05-15 14:32:13 +0000";
layers = (
{
anchors = (
{
name = _top;
pos = (228,500);
},
{
name = _top2;
pos = (228,555);
}
);
layerId = m01;
shapes = (
{
closed = 1;
nodes = (
(301,755,l),
(120,597,l),
(93,627,l),
(228,801,l),
(298,766,l)
);
},
{
closed = 1;
nodes = (
(478,756,l),
(297,598,l),
(270,628,l),
(405,802,l),
(475,767,l)
);
}
);
width = 600;
}
);
unicode = 779;
},
{
color = 9;
glyphname = caroncomb.alt;
lastChange = "2023-05-23 21:24:35 +0000";
layers = (
{
anchors = (
{
name = _top3;
pos = (288,500);
}
);
layerId = m01;
shapes = (
{
closed = 1;
nodes = (
(354,793,o),
(336,815,o),
(309,815,cs),
(283,815,o),
(265,797,o),
(265,770,cs),
(265,748,o),
(288,734,o),
(288,708,cs),
(288,687,o),
(267,671,o),
(254,662,c),
(265,648,l),
(311,668,o),
(354,710,o),
(354,767,cs)
);
}
);
width = 600;
}
);
},
{
color = 9;
glyphname = circumflexcomb;
lastChange = "2023-05-15 13:47:15 +0000";
layers = (
{
anchors = (
{
name = _top;
pos = (274,500);
},
{
name = _top2;
pos = (273,555);
}
);
layerId = m01;
shapes = (
{
closed = 1;
nodes = (
(136,597,l),
(198,597,l),
(283,729,l),
(262,729,l),
(347,597,l),
(408,597,l),
(415,607,l),
(280,776,l),
(265,776,l),
(129,607,l)
);
}
);
width = 544;
}
);
unicode = 770;
},
{
color = 9;
glyphname = caroncomb;
lastChange = "2023-05-20 15:00:18 +0000";
layers = (
{
anchors = (
{
name = _top;
pos = (293,500);
},
{
name = _top2;
pos = (293,555);
}
);
layerId = m01;
shapes = (
{
closed = 1;
nodes = (
(285,597,l),
(300,597,l),
(435,766,l),
(428,776,l),
(367,776,l),
(282,644,l),
(303,644,l),
(218,776,l),
(156,776,l),
(149,766,l)
);
}
);
width = 584;
}
);
unicode = 780;
},
{
color = 9;
glyphname = brevecomb;
lastChange = "2023-05-15 13:49:26 +0000";
layers = (
{
anchors = (
{
name = _top;
pos = (292,500);
},
{
name = _top2;
pos = (292,555);
}
);
guides = (
{
angle = 90;
pos = (292,603);
}
);
layerId = m01;
shapes = (
{
closed = 1;
nodes = (
(251,667,o),
(221,707,o),
(204,770,c),
(181,766,l),
(186,691,o),
(212,612,o),
(292,612,cs),
(372,612,o),
(398,691,o),
(403,766,c),
(380,770,l),
(363,707,o),
(333,667,o),
(292,667,cs)
);
}
);
width = 584;
}
);
unicode = 774;
},
{
color = 9;
glyphname = ringcomb;
lastChange = "2023-05-29 20:18:37 +0000";
layers = (
{
anchors = (
{
name = _top;
pos = (233,500);
},
{
name = _top2;
pos = (233,513);
}
);
guides = (
{
angle = 90;
pos = (233,561);
}
);
layerId = m01;
shapes = (
{
closed = 1;
nodes = (
(318,717,o),
(279,748,o),
(233,748,cs),
(178,748,o),
(145,700,o),
(145,654,cs),
(145,603,o),
(186,572,o),
(231,572,cs),
(285,572,o),
(318,621,o),
(318,665,cs)
);
},
{
closed = 1;
nodes = (
(280,615,o),
(260,592,o),
(233,592,cs),
(200,592,o),
(183,630,o),
(183,665,cs),
(183,705,o),
(203,728,o),
(231,728,cs),
(263,728,o),
(280,690,o),
(280,654,cs)
);
}
);
width = 463;
}
);
unicode = 778;
},
{
color = 9;
glyphname = tildecomb;
lastChange = "2023-05-15 14:29:23 +0000";
layers = (
{
anchors = (
{
name = _top;
pos = (265,500);
},
{
name = _top2;
pos = (265,555);
}
);
layerId = m01;
shapes = (
{
closed = 1;
nodes = (
(158,644,o),
(195,640,o),
(223,630,c),
(277,611,l),
(332,591,o),
(402,601,o),
(432,681,c),
(399,697,l),
(379,656,o),
(339,657,o),
(310,668,c),
(255,687,l),
(201,706,o),
(123,689,o),
(102,609,c),
(138,593,l)
);
}
);
width = 534;
}
);
unicode = 771;
},
{
color = 9;
glyphname = macroncomb;
lastChange = "2023-05-15 19:55:17 +0000";
layers = (
{
anchors = (
{
name = _top;
pos = (265,500);
},
{
name = _top2;
pos = (265,555);
}
);
layerId = m01;
shapes = (
{
closed = 1;
nodes = (
(120,614,l),
(414,614,l),
(414,669,l),
(120,669,l)
);
}
);
width = 600;
}
);
unicode = 772;
},
{
color = 9;
glyphname = commaturnedabovecomb;
lastChange = "2023-05-29 21:37:01 +0000";
layers = (
{
anchors = (
{
name = _top;
pos = (249,500);
}
);
layerId = m01;
shapes = (
{
closed = 1;
nodes = (
(202,579,o),
(220,554,o),
(250,554,cs),
(281,554,o),
(299,576,o),
(299,606,cs),
(299,636,o),
(274,643,o),
(274,668,cs),
(274,692,o),
(298,703,o),
(313,713,c),
(301,730,l),
(249,707,o),
(202,674,o),
(202,609,cs)
);
}
);
width = 600;
}
);
unicode = 786;
},
{
color = 9;
glyphname = commaaccentcomb;
lastChange = "2023-05-21 12:47:48 +0000";
layers = (
{
anchors = (
{
name = _bottom2;
pos = (73,12);
}
);
layerId = m01;
shapes = (
{
closed = 1;
nodes = (
(120,-61,o),
(102,-36,o),
(72,-36,cs),
(41,-36,o),
(23,-58,o),
(23,-88,cs),
(23,-118,o),
(48,-125,o),
(48,-150,cs),
(48,-174,o),
(24,-185,o),
(9,-195,c),
(21,-212,l),
(73,-189,o),
(120,-156,o),
(120,-91,cs)
);
}
);
width = 135;
}
);
unicode = 806;
},
{
color = 9;
glyphname = cedillacomb;
lastChange = "2023-05-15 13:38:33 +0000";
layers = (
{
anchors = (
{
name = _bottom;
pos = (187,-7);
}
);
layerId = m01;
shapes = (
{
closed = 1;
nodes = (
(141,-223,o),
(167,-235,o),
(201,-235,cs),
(271,-235,o),
(293,-185,o),
(293,-154,cs),
(293,-115,o),
(257,-97,o),
(219,-97,c),
(268,2,l),
(207,2,l),
(156,-126,l),
(161,-131,l),
(203,-115,o),
(250,-129,o),
(250,-160,cs),
(250,-185,o),
(233,-203,o),
(201,-203,cs),
(177,-203,o),
(154,-191,o),
(139,-175,c),
(129,-210,l)
);
}
);
width = 422;
}
);
unicode = 807;
},
{
color = 9;
glyphname = ogonekcomb;
lastChange = "2023-05-15 20:06:04 +0000";
layers = (
{
anchors = (
{
name = _ogonek;
pos = (436,2);
}
);
layerId = m01;
shapes = (
{
closed = 1;
nodes = (
(259,-15,o),
(218,-62,o),
(218,-118,cs),
(218,-155,o),
(237,-216,o),
(330,-216,cs),
(375,-216,o),
(420,-181,o),
(436,-164,c),
(415,-134,l),
(395,-157,o),
(367,-172,o),
(331,-172,cs),
(300,-172,o),
(271,-146,o),
(271,-108,cs),
(271,-75,o),
(289,-43,o),
(343,-13,c),
(368,2,l),
(324,2,l)
);
}
);
width = 600;
}
);
unicode = 808;
},
{
color = 9;
glyphname = acutecomb.loclPLK;
lastChange = "2023-05-15 13:38:49 +0000";
layers = (
{
anchors = (
{
name = _top;
pos = (160,500);
},
{
name = _top3;
pos = (160,540);
}
);
layerId = m01;
shapes = (
{
closed = 1;
nodes = (
(187,761,l),
(140,590,l),
(187,590,l),
(268,750,l),
(265,761,l)
);
}
);
width = 408;
}
);
},
{
color = 9;
glyphname = dieresis;
lastChange = "2023-05-15 10:37:28 +0000";
layers = (
{
anchors = (
{
name = _top;
pos = (274,500);
},
{
name = _top2;
pos = (274,555);
}
);
layerId = m01;
shapes = (
{
closed = 1;
nodes = (
(213,611,o),
(237,634,o),
(237,662,cs),
(237,690,o),
(213,713,o),
(183,713,cs),
(153,713,o),
(129,690,o),
(129,662,cs),
(129,634,o),
(153,611,o),
(183,611,cs)
);
},
{
closed = 1;
nodes = (
(399,611,o),
(424,634,o),
(424,662,cs),
(424,690,o),
(399,713,o),
(370,713,cs),
(341,713,o),
(316,690,o),
(316,662,cs),
(316,634,o),
(341,611,o),
(370,611,cs)
);
}
);
width = 553;
}
);
unicode = 168;
},
{
color = 9;
glyphname = dotaccent;
lastChange = "2023-05-15 10:42:32 +0000";
layers = (
{
anchors = (
{
name = _top;
pos = (102,500);
}
);
layerId = m01;
shapes = (
{
closed = 1;
nodes = (
(132,608,o),
(156,632,o),
(156,662,cs),
(156,692,o),
(132,716,o),
(102,716,cs),
(72,716,o),
(48,692,o),
(48,662,cs),
(48,632,o),
(72,608,o),
(102,608,cs)
);
}
);
width = 202;
}
);
unicode = 729;
},
{
color = 9;
glyphname = grave;
lastChange = "2023-05-15 13:39:00 +0000";
layers = (
{
anchors = (
{
name = _top;
pos = (274,500);
}
);
layerId = m01;
shapes = (
{
closed = 1;
nodes = (
(140,730,l),
(351,597,l),
(378,627,l),
(213,776,l),
(143,741,l)
);
}
);
width = 600;
}
);
unicode = 96;
},
{
color = 9;
glyphname = acute;
lastChange = "2023-05-15 13:39:10 +0000";
layers = (
{
anchors = (
{
name = _top;
pos = (274,500);
}
);
layerId = m01;
shapes = (
{
closed = 1;
nodes = (
(305,776,l),
(140,627,l),
(167,597,l),
(378,730,l),
(375,741,l)
);
}
);
width = 518;
}
);
unicode = 180;
},
{
color = 9;
glyphname = hungarumlaut;
lastChange = "2023-05-15 13:39:31 +0000";
layers = (
{
anchors = (
{
name = _top;
pos = (274,500);
}
);
guides = (
{
pos = (116,597);
}
);
layerId = m01;
shapes = (
{
closed = 1;
nodes = (
(228,801,l),
(93,627,l),
(120,597,l),
(301,755,l),
(298,766,l)
);
},
{
closed = 1;
nodes = (
(405,802,l),
(270,628,l),
(297,598,l),
(478,756,l),
(475,767,l)
);
}
);
width = 600;
}
);
unicode = 733;
},
{
color = 9;
glyphname = circumflex;
lastChange = "2023-05-15 13:39:37 +0000";
layers = (
{
anchors = (
{
name = _top;
pos = (274,500);
}
);
guides = (
{
locked = 1;
pos = (272,776);
},
{
locked = 1;
pos = (277,597);
},
{
locked = 1;
pos = (195,608);
}
);
layerId = m01;
shapes = (
{
closed = 1;
nodes = (
(136,597,l),
(198,597,l),
(283,729,l),
(262,729,l),
(347,597,l),
(408,597,l),
(415,607,l),
(280,776,l),
(265,776,l),
(129,607,l)
);
}
);
width = 544;
}
);
unicode = 710;
},
{
color = 9;
glyphname = caron;
lastChange = "2023-05-15 13:48:32 +0000";
layers = (
{
anchors = (
{
name = _top;
pos = (293,500);
},
{
name = _top2;
pos = (293,555);
}
);
guides = (
{
angle = 90;
pos = (293,581);
}
);
layerId = m01;
shapes = (
{
closed = 1;
nodes = (
(285,597,l),
(300,597,l),
(435,766,l),
(428,776,l),
(367,776,l),
(282,644,l),
(303,644,l),
(218,776,l),
(156,776,l),
(149,766,l)
);
}
);
width = 584;
}
);
unicode = 711;
},
{
color = 9;
glyphname = breve;
lastChange = "2023-05-15 13:39:58 +0000";
layers = (
{
anchors = (
{
name = _top;
pos = (292,500);
}
);
guides = (
{
angle = 90;
pos = (292,636);
},
{
locked = 1;
pos = (292,675);
}
);
layerId = m01;
shapes = (
{
closed = 1;
nodes = (
(251,667,o),
(221,707,o),
(204,770,c),
(181,766,l),
(186,691,o),
(212,612,o),
(292,612,cs),
(372,612,o),
(398,691,o),
(403,766,c),
(380,770,l),
(363,707,o),
(333,667,o),
(292,667,cs)
);
}
);
width = 584;
}
);
unicode = 728;
},
{
color = 9;
glyphname = ring;
lastChange = "2023-05-15 10:51:54 +0000";
layers = (
{
anchors = (
{
name = _top;
pos = (231,500);
}
);
guides = (
{
pos = (263,792);
},
{
pos = (263,600);
}
);
layerId = m01;
shapes = (
{
closed = 1;
nodes = (
(318,757,o),
(279,788,o),
(233,788,cs),
(178,788,o),
(145,740,o),
(145,694,cs),
(145,643,o),
(186,612,o),
(231,612,cs),
(285,612,o),
(318,661,o),
(318,705,cs)
);
},
{
closed = 1;
nodes = (
(280,655,o),
(260,632,o),
(233,632,cs),
(200,632,o),
(183,670,o),
(183,705,cs),
(183,745,o),
(203,768,o),
(231,768,cs),
(263,768,o),
(280,730,o),
(280,694,cs)
);
}
);
width = 463;
}
);
unicode = 730;
},
{
color = 9;
glyphname = tilde;
lastChange = "2023-05-15 10:51:02 +0000";
layers = (
{
anchors = (
{
name = _top;
pos = (265,500);
}
);
guides = (
{
locked = 1;
pos = (289,628);
},
{
locked = 1;
pos = (296,767);
},
{
angle = 90;
locked = 1;
pos = (120,739);
},
{
angle = 90;
locked = 1;
pos = (414,749);
}
);
layerId = m01;
shapes = (
{
closed = 1;
nodes = (
(158,644,o),
(195,640,o),
(223,630,c),
(277,611,l),
(332,591,o),
(402,601,o),
(432,681,c),
(399,697,l),
(379,656,o),
(339,657,o),
(310,668,c),
(255,687,l),
(201,706,o),
(123,689,o),
(102,609,c),
(138,593,l)
);
}
);
width = 534;
}
);
unicode = 732;
},
{
color = 9;
glyphname = macron;
lastChange = "2023-05-15 19:56:06 +0000";
layers = (
{
anchors = (
{
name = _top;
pos = (265,500);
}
);
guides = (
{
pos = (446,717);
},
{
pos = (446,662);
}
);
layerId = m01;
shapes = (
{
closed = 1;
nodes = (
(120,614,l),
(414,614,l),
(414,669,l),
(120,669,l)
);
}
);
width = 534;
}
);
unicode = 175;
},
{
color = 9;
glyphname = cedilla;
lastChange = "2023-05-15 13:40:20 +0000";
layers = (
{
anchors = (
{
name = _bottom;
pos = (187,-7);
}
);
layerId = m01;
shapes = (
{
closed = 1;
nodes = (
(141,-223,o),
(167,-235,o),
(201,-235,cs),
(271,-235,o),
(293,-185,o),
(293,-154,cs),
(293,-115,o),
(257,-97,o),
(219,-97,c),
(268,2,l),
(207,2,l),
(156,-126,l),
(161,-131,l),
(203,-115,o),
(250,-129,o),
(250,-160,cs),
(250,-185,o),
(233,-203,o),
(201,-203,cs),
(177,-203,o),
(154,-191,o),
(139,-175,c),
(129,-210,l)
);
}
);
width = 422;
}
);
unicode = 184;
},
{
color = 9;
glyphname = ogonek;
lastChange = "2023-05-15 13:40:28 +0000";
layers = (
{
anchors = (
{
name = _ogonek;
pos = (436,2);
}
);
layerId = m01;
shapes = (
{
closed = 1;
nodes = (
(259,-15,o),
(218,-62,o),
(218,-118,cs),
(218,-155,o),
(237,-216,o),
(330,-216,cs),
(375,-216,o),
(420,-181,o),
(436,-164,c),
(415,-134,l),
(395,-157,o),
(367,-172,o),
(331,-172,cs),
(300,-172,o),
(271,-146,o),
(271,-108,cs),
(271,-72,o),
(300,-29,o),
(367,2,c),
(324,2,l)
);
}
);
width = 600;
}
);
unicode = 731;
},
{
color = 6;
glyphname = apostrophemod;
lastChange = "2023-11-25 13:03:51 +0000";
layers = (
{
layerId = m01;
shapes = (
{
closed = 1;
nodes = (
(112,778,l),
(43,565,l),
(5,565,l),
(26,786,l),
(104,786,l)
);
}
);
width = 127;
}
);
unicode = 700;
},
{
export = 0;
glyphname = _corner.origin;
lastChange = "2023-09-26 19:06:41 +0000";
layers = (
{
anchors = (
{
name = origin;
pos = (107,0);
},
{
name = side;
pos = (107,90);
}
);
guides = (
{
angle = 90;
pos = (107,183);
},
{
locked = 1;
pos = (87,32);
}
);
layerId = m01;
shapes = (
{
closed = 0;
nodes = (
(107,90,l),
(107,54,o),
(77,32,o),
(35,13,c),
(39,0,l),
(139,0,l)
);
}
);
width = 200;
}
);
},
